<svg width="20" height="20" viewBox="0 0 20 20" fill="none" xmlns="http://www.w3.org/2000/svg">
<path d="M2.85104 7.72311V15.8166C2.85104 16.2067 3.21359 16.468 3.64114 16.768C4.1287 17.1105 4.70127 17.4243 4.91255 17.4243L16.6078 17.5018C16.9078 17.5018 17.1503 17.1343 17.1503 16.8343V7.72311H2.85104Z" fill="#BDBDBD"/>
<path d="M14.9652 16.8443C14.5677 16.893 14.1701 16.9142 13.7726 16.9492C13.375 16.9742 12.9775 16.9967 12.5799 17.0117C12.1824 17.0317 11.7848 17.0355 11.3873 17.048L10.1946 17.0592L9.00196 17.0467C8.60441 17.0355 8.20686 17.0305 7.80931 17.0105C7.41176 16.9955 7.01421 16.973 6.61666 16.948C6.21911 16.913 5.82156 16.8917 5.42401 16.843V16.818L10.1934 16.8055L14.9627 16.818V16.8443H14.9652Z" fill="#757575"/>
<path opacity="0.29" d="M17.1503 16.8343L16.1154 15.7704V7.49058L17.1503 7.46683V16.8343Z" fill="url(#paint0_linear_273_298)"/>
<path d="M17.1504 8.41569L16.3429 7.90938L15.0792 2.49995C15.0792 2.49995 15.1542 2.49995 15.7592 2.49995C16.9654 2.49995 17.1504 3.19628 17.1504 3.43381V8.41569Z" fill="#C62828"/>
<path d="M3.21881 7.72321V15.5592C3.21881 15.8967 3.4926 16.1693 3.82889 16.1693H15.6866C16.0242 16.1693 16.3392 15.918 16.3392 15.5804V14.9254V7.72321H3.21881Z" fill="#FAFAFA"/>
<path d="M8.44777 14.7903H7.37533V10.6585L6.0954 11.0548V10.1834L8.33153 9.38207H8.44652V14.7903H8.44777Z" fill="black"/>
<path d="M13.4944 9.9884L11.407 14.7903H10.2758L12.367 10.2547H9.6821V9.39082H13.4944V9.9884Z" fill="black"/>
<path d="M12.5637 16.1687H15.7285C16.066 16.1687 16.3385 15.8949 16.3385 15.5587V13.2551C16.3385 13.2551 15.651 14.21 14.6098 14.995C13.5686 15.7799 12.5637 16.1687 12.5637 16.1687Z" fill="#757575"/>
<path d="M15.3973 15.04C16.3622 13.9038 16.3385 13.2563 16.3385 13.2563C16.3385 13.2563 16.0597 13.6488 15.1835 13.7375C14.8748 13.7688 14.4323 13.65 14.1061 13.5413C13.9098 13.4763 13.7061 13.6163 13.6998 13.8213C13.6911 14.085 13.6474 14.455 13.5061 14.895C13.2711 15.6299 12.5624 16.1699 12.5624 16.1699C12.5624 16.1699 14.3186 16.3086 15.3973 15.04Z" fill="#BDBDBD"/>
<path opacity="0.29" d="M16.3392 8.5307L3.21881 8.54445V7.90948H16.3392V8.5307Z" fill="#616161"/>
<path d="M16.3427 7.90929H2.85104V3.2187C2.85104 2.82115 3.17233 2.49986 3.56988 2.49986H15.6451C16.0439 2.49986 16.3665 2.82365 16.364 3.22245L16.3427 7.90929Z" fill="#F44336"/>
<path d="M7.24405 3.9326H7.75902V5.66251C7.75902 5.82125 7.72402 5.9625 7.65402 6.08374C7.58403 6.20498 7.48403 6.29998 7.35654 6.36623C7.2278 6.43247 7.08405 6.46622 6.92281 6.46622C6.65908 6.46622 6.45284 6.39872 6.30534 6.26498C6.15785 6.13124 6.08411 5.94 6.08411 5.69501H6.60283C6.60283 5.8175 6.62908 5.9075 6.68033 5.96625C6.73157 6.02499 6.81282 6.05374 6.92406 6.05374C7.02281 6.05374 7.1003 6.01999 7.15905 5.9525C7.2178 5.885 7.24655 5.78876 7.24655 5.66376V3.9326H7.24405Z" fill="white"/>
<path d="M9.2793 6.24247C9.15681 6.39121 8.98807 6.46496 8.77183 6.46496C8.57309 6.46496 8.4206 6.40746 8.31685 6.29372C8.21186 6.17997 8.15811 6.01123 8.15686 5.79124V4.57506H8.65308V5.77625C8.65308 5.96999 8.74058 6.06623 8.91682 6.06623C9.08556 6.06623 9.20055 6.00748 9.26305 5.89124V4.57506H9.76053V6.43121H9.2943L9.2793 6.24247Z" fill="white"/>
<path d="M10.6571 6.43122H10.1596V3.79636H10.6571V6.43122Z" fill="white"/>
<path d="M11.7587 5.72882L12.1024 4.57388H12.6349L11.8887 6.71877L11.8474 6.81627C11.7362 7.05875 11.5537 7.18 11.2987 7.18C11.2262 7.18 11.1537 7.16875 11.0787 7.1475V6.77127L11.1537 6.77252C11.2475 6.77252 11.3175 6.75877 11.3637 6.73002C11.4099 6.70127 11.4462 6.65377 11.4724 6.58753L11.5312 6.43504L10.8812 4.57388H11.4149L11.7587 5.72882Z" fill="white"/>
<path d="M4.84995 5.10497C5.34007 5.10497 5.7374 4.70764 5.7374 4.21752C5.7374 3.72739 5.34007 3.33006 4.84995 3.33006C4.35982 3.33006 3.96249 3.72739 3.96249 4.21752C3.96249 4.70764 4.35982 5.10497 4.84995 5.10497Z" fill="#606060"/>
<path d="M4.55499 4.81099C5.04512 4.81099 5.44245 4.41366 5.44245 3.92353C5.44245 3.43341 5.04512 3.03608 4.55499 3.03608C4.06487 3.03608 3.66754 3.43341 3.66754 3.92353C3.66754 4.41366 4.06487 4.81099 4.55499 4.81099Z" fill="#94D1E0"/>
<path d="M4.63125 3.55628C4.61125 3.66252 4.54376 3.75252 4.46626 3.82876C4.37377 3.91876 4.26502 3.99376 4.14253 4.035C4.07003 4.06 3.98629 4.07 3.92254 4.0275C3.7463 3.90876 3.88754 3.46253 4.02128 3.34379C4.22502 3.1638 4.70125 3.19755 4.63125 3.55628Z" fill="#C9EFF2"/>
<path d="M14.664 5.10504C15.1541 5.10504 15.5515 4.70771 15.5515 4.21759C15.5515 3.72746 15.1541 3.33013 14.664 3.33013C14.1739 3.33013 13.7766 3.72746 13.7766 4.21759C13.7766 4.70771 14.1739 5.10504 14.664 5.10504Z" fill="#606060"/>
<path d="M14.3699 4.811C14.8601 4.811 15.2574 4.41368 15.2574 3.92355C15.2574 3.43342 14.8601 3.03609 14.3699 3.03609C13.8798 3.03609 13.4825 3.43342 13.4825 3.92355C13.4825 4.41368 13.8798 4.811 14.3699 4.811Z" fill="#94D1E0"/>
<path d="M14.4462 3.55629C14.4262 3.66254 14.3587 3.75253 14.2812 3.82878C14.1887 3.91877 14.08 3.99377 13.9575 4.03502C13.885 4.06002 13.8012 4.07002 13.7375 4.02752C13.5612 3.90878 13.7025 3.46255 13.8362 3.3438C14.04 3.16381 14.5149 3.19756 14.4462 3.55629Z" fill="#C9EFF2"/>
<defs>
<linearGradient id="paint0_linear_273_298" x1="16.6328" y1="11.3391" x2="16.6328" y2="16.3309" gradientUnits="userSpaceOnUse">
<stop offset="0.3374" stop-color="#616161"/>
<stop offset="1" stop-color="#616161" stop-opacity="0"/>
</linearGradient>
</defs>
</svg>
