<svg width="33" height="32" viewBox="0 0 33 32" fill="current" xmlns="http://www.w3.org/2000/svg">
<path d="M16.5834 2.75332C16.1972 2.58401 15.8169 2.70246 15.5722 2.95164C15.3345 3.19369 15.2156 3.56312 15.299 3.9356C15.4305 4.52352 15.5 5.13519 15.5 5.76348C15.5 7.19794 15.1385 8.20261 14.5164 9.03547C13.884 9.88212 12.9686 10.5714 11.8129 11.3491C11.7947 11.3613 11.7778 11.3753 11.7624 11.3909L11.6224 11.5319C9.1426 13.134 7.5 15.9235 7.5 19.0968C7.5 24.0674 11.5294 28.0968 16.5 28.0968C21.4706 28.0968 25.5 24.0674 25.5 19.0968C25.5 17.6374 25.1524 16.2582 24.5351 15.0385C24.4849 14.9392 24.3885 14.8716 24.2781 14.8581C24.1678 14.8446 24.0579 14.8871 23.9853 14.9713C23.8913 15.0803 23.7992 15.1879 23.7085 15.2939C22.5374 16.6621 21.5924 17.7663 19.6549 18.2595C19.5725 18.2805 19.5213 18.2649 19.485 18.2422C19.4422 18.2155 19.3955 18.1622 19.3634 18.077C19.2966 17.8995 19.3253 17.6732 19.4621 17.5248C20.4984 16.4013 21.2345 14.8763 21.4976 12.7068C21.9903 8.64291 20.1433 4.31412 16.5834 2.75332Z" fill="current"/>
</svg>
