<svg width="20" height="20" viewBox="0 0 20 20" fill="none" xmlns="http://www.w3.org/2000/svg">
<path d="M17.5019 2.49988H2.5V17.5018H17.5019V2.49988Z" fill="white"/>
<path fill-rule="evenodd" clip-rule="evenodd" d="M14.7891 17.4768V2.52488H15.0382V17.4768H14.7891Z" fill="#B0BEC5"/>
<path fill-rule="evenodd" clip-rule="evenodd" d="M12.333 17.4767V2.52487H12.5821V17.4767H12.333Z" fill="#B0BEC5"/>
<path fill-rule="evenodd" clip-rule="evenodd" d="M9.87598 17.4769V2.52501H10.1251V17.4769H9.87598Z" fill="#B0BEC5"/>
<path fill-rule="evenodd" clip-rule="evenodd" d="M7.41992 17.4768V2.52488H7.66905V17.4768H7.41992Z" fill="#B0BEC5"/>
<path fill-rule="evenodd" clip-rule="evenodd" d="M4.96289 17.4768V2.52488H5.21201V17.4768H4.96289Z" fill="#B0BEC5"/>
<path fill-rule="evenodd" clip-rule="evenodd" d="M2.52441 14.794H17.4825V15.044H2.52441V14.794Z" fill="#B0BEC5"/>
<path fill-rule="evenodd" clip-rule="evenodd" d="M2.52441 12.3351H17.4825V12.585H2.52441V12.3351Z" fill="#B0BEC5"/>
<path fill-rule="evenodd" clip-rule="evenodd" d="M2.52148 9.87598H17.4809V10.126H2.52148V9.87598Z" fill="#B0BEC5"/>
<path fill-rule="evenodd" clip-rule="evenodd" d="M2.52051 7.41696H17.4786V7.66694H2.52051V7.41696Z" fill="#B0BEC5"/>
<path fill-rule="evenodd" clip-rule="evenodd" d="M2.51855 4.95778H17.4767V5.20776H2.51855V4.95778Z" fill="#B0BEC5"/>
<path d="M2.63695 17.3742L2.62695 16.6041L5.99237 10.5384L8.95524 13.2775L16.9287 2.63862H17.365L17.3825 3.2837L9.05651 14.3926L6.17865 11.7323L3.05576 17.378L2.63695 17.3742Z" fill="#E53935"/>
<path d="M17.2531 2.74866V17.2517H2.74878V2.74866H17.2531ZM17.5019 2.49988H2.5V17.5018H17.5019V2.49988Z" fill="#B0BEC5"/>
</svg>
