<svg width="32" height="32" viewBox="0 0 32 32" fill="current" xmlns="http://www.w3.org/2000/svg">
<path fill-rule="evenodd" clip-rule="evenodd" d="M10.6694 6.07055C14.2645 5.79959 17.8755 5.81736 21.4678 6.12371L23.6328 6.30834C25.2681 6.4478 26.5953 7.68889 26.844 9.31122L26.9806 10.2023C27.4441 13.2262 27.4008 16.3062 26.8524 19.3158C26.5818 20.8008 25.2882 21.88 23.7788 21.88H11.8102C11.5349 21.88 11.2638 21.9482 11.0213 22.0786L5.80688 24.8808C5.49697 25.0474 5.12234 25.0388 4.82036 24.8583C4.51838 24.6778 4.3335 24.3518 4.3335 24V12.6436C4.3335 9.20547 6.98337 6.34836 10.4118 6.08997L10.6694 6.07055ZM10.6668 12.6667C9.74636 12.6667 9.00016 13.4129 9.00016 14.3333C9.00016 15.2538 9.74636 16 10.6668 16C11.5873 16 12.3335 15.2538 12.3335 14.3333C12.3335 13.4129 11.5873 12.6667 10.6668 12.6667ZM16.0002 12.6667C15.0797 12.6667 14.3335 13.4129 14.3335 14.3333C14.3335 15.2538 15.0797 16 16.0002 16C16.9206 16 17.6668 15.2538 17.6668 14.3333C17.6668 13.4129 16.9206 12.6667 16.0002 12.6667ZM19.6668 14.3333C19.6668 13.4129 20.413 12.6667 21.3335 12.6667C22.254 12.6667 23.0002 13.4129 23.0002 14.3333C23.0002 15.2538 22.254 16 21.3335 16C20.413 16 19.6668 15.2538 19.6668 14.3333Z" fill="current"/>
</svg>
