<svg width="24" height="24" viewBox="0 0 24 24" fill="none" xmlns="http://www.w3.org/2000/svg">
<g clip-path="url(#clip0_299_1261)">
<path d="M21.9179 14.5881C22.1144 14.4859 22.2832 14.3379 22.4104 14.1567C23.2942 12.8968 19.6957 9.84158 19.4399 8.00534C18.7482 3.03892 14.8487 1.28575 10.5077 1.28575C4.65756 1.28575 1.28564 4.28575 1.28564 10.2858C1.28564 14.3892 2.35731 15.7642 3.65324 17.8612C4.36371 19.0108 4.66496 20.3541 4.66154 21.7055C4.65943 22.5362 4.65756 23.4292 4.65756 23.988H14.975V20.9995C15.0693 20.236 15.7505 19.7224 16.5197 19.7224H17.3655C18.7856 19.7224 19.9369 18.5711 19.9369 17.151V14.7776L21.2821 14.7437C21.5034 14.7436 21.7216 14.6902 21.9179 14.5881Z" fill="#D7E4FB"/>
<path d="M11.1465 8.57817V1.28575" stroke="#2878F5" stroke-width="1.73116" stroke-linecap="round" stroke-linejoin="round"/>
<path d="M12 15.3683C13.7143 17.0826 17.1429 18.8572 21.4286 18.8572" stroke="#2878F5" stroke-width="1.73116" stroke-linecap="round"/>
<path d="M4.65756 23.1281C4.65756 22.7152 4.65857 22.2086 4.65996 21.7111C4.66373 20.356 4.36275 19.0089 3.65023 17.8562C2.35565 15.762 1.28564 14.386 1.28564 10.2857C1.28564 6.47733 2.64411 3.87759 5.13255 2.4865" stroke="#2878F5" stroke-width="1.73116" stroke-linecap="round" stroke-linejoin="round"/>
<path d="M19.9369 15.8147V14.7777L21.2821 14.7439C21.5034 14.7438 21.7217 14.6904 21.9179 14.5882C22.1144 14.486 22.2833 14.338 22.4105 14.1568C23.2942 12.8969 19.6957 9.8417 19.4399 8.00544C19.0374 5.11509 17.5482 3.31306 15.5181 2.31156" stroke="#2878F5" stroke-width="1.73116" stroke-linecap="round" stroke-linejoin="round"/>
<path d="M14.9751 20.9996V23.1281" stroke="#2878F5" stroke-width="1.73116" stroke-linecap="round" stroke-linejoin="round"/>
<path d="M11.1463 15.4286C13.3406 15.4286 14.5749 14.1943 14.5749 12C14.5749 9.80575 13.3406 8.57146 11.1463 8.57146C8.95206 8.57146 7.71777 9.80575 7.71777 12C7.71777 14.1943 8.95206 15.4286 11.1463 15.4286Z" fill="white" stroke="#2878F5" stroke-width="1.73116" stroke-linecap="round" stroke-linejoin="round"/>
</g>
<defs>
<clipPath id="clip0_299_1261">
<rect width="24" height="24" fill="white"/>
</clipPath>
</defs>
</svg>
