<svg width="24" height="24" viewBox="0 0 24 24" fill="none" xmlns="http://www.w3.org/2000/svg">
<g clip-path="url(#clip0_330_2039)">
<path d="M8.29035 18.5895C4.45863 18.5895 2.40084 16.0196 1.69813 13.5121C1.36822 12.3348 1.29688 11.2212 1.29688 10.0204C1.29688 5.48597 5.37757 1.83975 9.90728 1.63345C10.6032 1.60175 11.3047 1.58302 12.0112 1.58302C12.7176 1.58302 13.4191 1.60175 14.115 1.63344C18.6447 1.83975 22.2579 5.21425 22.6162 10.0204C22.8466 13.1091 22.6162 16.2357 21.9293 19.5154C21.5887 21.1415 20.8767 22.1874 19.7268 22.1874C19.2089 22.1874 18.4183 20.5266 17.8935 20.5722C17.3554 20.6189 16.4085 22.417 15.2175 22.417C14.0264 22.417 12.9939 20.7174 12.4232 20.6874C11.5496 20.6417 10.7842 22.1874 10.1499 22.1874C9.07628 22.1874 8.45693 20.7579 8.29035 18.5895Z" fill="#D7E4FB" stroke="#2878F5" stroke-width="1.73116" stroke-linejoin="round"/>
<path d="M12.5029 10.0052V11.8796" stroke="#2878F5" stroke-width="1.73116" stroke-linecap="round"/>
<path d="M18.021 10.0052V11.8796" stroke="#2878F5" stroke-width="1.73116" stroke-linecap="round"/>
</g>
<defs>
<clipPath id="clip0_330_2039">
<rect width="24" height="24" fill="white"/>
</clipPath>
</defs>
</svg>
