<svg width="20" height="20" viewBox="0 0 20 20" fill="none" xmlns="http://www.w3.org/2000/svg">
<path d="M9.06015 6.49006C9.13516 6.15383 9.07765 6.31382 8.59384 5.60636C8.15879 4.97139 8.2488 4.06894 7.73374 3.62021C7.41745 3.34523 7.02115 3.03649 5.54471 3.77896C5.03215 4.03644 4.00827 4.88515 2.84812 5.27388C1.91426 5.58636 2.43182 5.96384 2.6306 6.03384C3.33819 6.28258 4.27455 5.7451 4.27455 5.7451C4.27455 5.7451 2.93189 6.62256 3.72073 6.83005C4.36081 6.99879 5.16717 6.23008 5.16717 6.23008C5.16717 6.23008 4.37707 7.06753 5.0234 7.28252C5.4672 7.43002 6.34856 6.58756 6.34856 6.58756C6.34856 6.58756 5.73224 7.44377 6.02977 7.62501C6.48233 7.89999 7.22367 7.19128 7.22367 7.19128C7.22367 7.19128 6.63485 8.05123 6.94239 8.19123C7.40244 8.40122 8.08503 7.81125 8.08503 7.81125C8.08503 7.81125 8.92513 7.09128 9.06015 6.49006Z" fill="#E0E0E0"/>
<path d="M6.45911 3.72016C6.45911 3.72016 5.65415 4.19263 5.36041 4.57261C5.32167 4.62261 5.08043 4.86385 5.29292 5.00259C5.34667 5.03759 5.50666 5.01509 5.60165 4.95759C6.03413 4.69511 6.79909 4.07264 6.88283 4.10514C6.96658 4.13764 6.19912 4.64261 5.95163 5.25383C5.85914 5.48382 6.03913 5.64881 6.50785 5.37257C7.01783 5.07259 7.45655 4.54387 7.5303 4.54637C7.5303 4.54637 7.32531 4.90385 7.06282 5.18633C6.79534 5.47507 6.6066 5.7688 6.80409 5.8613C7.05283 5.97879 7.5903 5.66006 7.5903 5.66006C7.5903 5.66006 7.24782 6.07504 6.80409 6.16878C6.64785 6.20253 6.52535 6.18128 6.45036 6.09628C6.33661 5.96629 6.38036 5.7663 6.38036 5.7663C6.14412 5.86005 5.73664 6.01254 5.49416 5.80755C5.30542 5.64756 5.5629 5.17883 5.5629 5.17883C5.5629 5.17883 5.10668 5.43132 4.84669 5.35507C4.7117 5.31508 4.50546 5.12009 4.80669 4.70636C5.28167 4.06014 6.45911 3.72016 6.45911 3.72016Z" fill="#BDBDBD"/>
<path d="M7.42261 8.26664C7.94383 7.58918 8.46505 6.91296 8.98628 6.2355L8.94128 6.04051C8.91878 5.97176 8.71379 5.96301 8.43006 6.12676C8.24007 6.23675 7.89133 6.63173 7.6676 6.41424C7.5126 6.26425 7.95758 5.72803 7.95758 5.72803C7.89633 5.72928 7.40261 6.05926 7.32386 6.39049C7.25637 6.67173 7.32136 7.00171 7.95633 6.68048C7.97508 6.67048 7.99508 6.65923 8.01383 6.64798C7.93383 6.77422 7.86134 6.90672 7.80009 7.04171C7.6226 7.43169 7.5176 7.84917 7.42261 8.26664Z" fill="#BDBDBD"/>
<path d="M12.892 10.8547C11.6356 12.7375 10.5792 14.8115 8.17644 15.4466C8.15143 15.4528 8.12518 15.4453 8.10768 15.4266L4.18219 11.0948C4.06592 10.966 4.12343 10.7622 4.28845 10.7085C5.9024 10.1784 6.91003 8.91575 7.80764 7.56933C9.0453 5.71535 10.1054 3.67509 12.432 3.00626C12.5207 2.9725 12.6245 2.99376 12.692 3.06751C13.2133 3.64259 17.1451 7.38556 17.1513 7.39306C17.1538 7.39431 13.8559 9.40956 12.892 10.8547Z" fill="#66BB6A"/>
<path d="M9.26359 11.7146C9.1786 11.6296 9.07735 11.5871 8.95986 11.5884C8.84237 11.5896 8.68987 11.6371 8.50113 11.7309C8.2449 11.8671 8.02241 11.9308 7.83617 11.9246C7.64993 11.9171 7.48244 11.8396 7.33494 11.6909C7.1837 11.5396 7.10371 11.3709 7.09621 11.1859C7.08746 11.0009 7.1512 10.8222 7.28745 10.6497L7.04871 10.4097C7.01371 10.3747 7.01371 10.3172 7.04871 10.2809L7.12621 10.2034C7.1612 10.1684 7.2187 10.1684 7.25495 10.2034L7.49494 10.4447C7.67118 10.3109 7.85742 10.2559 8.05241 10.2784C8.2274 10.2997 8.39989 10.3859 8.56863 10.5409C8.60113 10.5709 8.60113 10.6234 8.56988 10.6547L8.42739 10.7972C8.39739 10.8272 8.34864 10.8272 8.31739 10.7984C8.2049 10.7009 8.08865 10.6447 7.96991 10.6322C7.83117 10.6172 7.70868 10.6622 7.60368 10.7672C7.49369 10.8772 7.43744 10.9896 7.43619 11.1034C7.43494 11.2184 7.48494 11.3271 7.58618 11.4284C7.67993 11.5234 7.78617 11.5671 7.90366 11.5621C8.02116 11.5571 8.1724 11.5071 8.35989 11.4121C8.54738 11.3171 8.70612 11.2584 8.84111 11.2346C8.97486 11.2109 9.09735 11.2171 9.20735 11.2521C9.31734 11.2884 9.42108 11.3546 9.51858 11.4521C9.67357 11.6084 9.75232 11.7809 9.75357 11.9696C9.75482 12.1583 9.67982 12.3458 9.52733 12.5321L9.72732 12.7321C9.76232 12.7671 9.76232 12.8245 9.72732 12.8608L9.65107 12.937C9.61607 12.972 9.55858 12.972 9.52233 12.937L9.32234 12.7371C9.13485 12.892 8.93861 12.9658 8.73487 12.9558C8.55363 12.947 8.37989 12.8695 8.2149 12.7233C8.18115 12.6933 8.18115 12.6408 8.21365 12.6096L8.35864 12.4658C8.38739 12.4371 8.43364 12.4346 8.46488 12.4608C8.57613 12.5571 8.69112 12.6058 8.80987 12.6083C8.94611 12.6108 9.0761 12.5496 9.19985 12.4258C9.32109 12.3058 9.38734 12.1808 9.39859 12.0546C9.40733 11.9283 9.36359 11.8146 9.26359 11.7146Z" fill="white"/>
<path d="M9.58351 12.5933L9.32102 12.7396L7.29238 10.6572L7.22363 10.5872L7.49487 10.4459L9.52351 12.5333L9.58351 12.5933Z" fill="white"/>
<path opacity="0.5" d="M11.485 9.49647C12.4805 9.49647 13.2874 8.6895 13.2874 7.69406C13.2874 6.69862 12.4805 5.89166 11.485 5.89166C10.4896 5.89166 9.68262 6.69862 9.68262 7.69406C9.68262 8.6895 10.4896 9.49647 11.485 9.49647Z" fill="#2E7D32"/>
<path d="M13.5201 11.8036C12.8763 12.7688 11.9487 14.6102 10.671 15.6229C9.49839 16.553 8.01945 17.0118 8.01945 17.0118L3.9502 12.2462L4.11897 10.9385L8.10947 15.4278C8.12572 15.4453 8.15072 15.4541 8.17447 15.4479C10.5785 14.8128 11.6349 12.7388 12.8913 10.856C13.8552 9.41084 15.2966 7.87065 17.1518 7.39559C17.2994 7.55811 17.2344 8.92078 17.0731 8.97454C15.4291 9.5196 14.4203 10.4522 13.5201 11.8036Z" fill="#2E7D32"/>
<path d="M11.8564 12.4409L12.2339 13.8346C12.2339 13.8346 13.3839 12.1521 13.5701 11.7447L13.1526 10.4885C12.5952 11.1822 11.8564 12.4409 11.8564 12.4409Z" fill="#FFC06C"/>
<path d="M11.759 4.12642C11.8552 4.26519 12.024 4.40896 12.2953 4.49272C12.3915 4.52272 12.4928 4.53773 12.5941 4.53773C12.8091 4.53773 12.9891 4.47147 13.1104 4.41021C13.4142 4.71525 13.7942 5.08655 14.1618 5.44659C14.5218 5.79913 14.8919 6.16168 15.1931 6.46297C15.0956 6.61174 15.0181 6.83677 15.0506 7.14055C15.0656 7.28057 15.1644 7.42309 15.2694 7.53935C14.6043 7.96691 13.3279 8.91703 12.019 10.5922C11.7427 10.946 11.4727 11.3386 11.2126 11.7174C10.5651 12.66 9.89623 13.6326 9.00612 14.2277C8.90111 14.0564 8.70733 13.8489 8.36104 13.7626C8.27728 13.7414 8.19477 13.7314 8.11601 13.7314C7.89348 13.7314 7.71846 13.8139 7.59344 13.9114L5.70571 11.7411C5.86448 11.6174 6.01324 11.4061 6.02825 11.0798C6.03575 10.9273 5.95449 10.7885 5.86198 10.6835C6.78209 10.0022 7.75346 8.91578 8.27603 8.13568C8.35229 8.02191 8.43105 7.90315 8.51231 7.78063C9.32991 6.54673 10.4375 4.88152 11.759 4.12642ZM11.8577 3.83389C10.2675 4.62149 9.00112 6.67299 8.09976 8.01566C7.50968 8.89452 6.4433 10.0409 5.52443 10.6597C5.52443 10.6597 5.82572 10.8735 5.81572 11.0673C5.79072 11.5874 5.36816 11.6749 5.36816 11.6749L7.58719 14.2252C7.58719 14.2252 7.74971 13.9402 8.11476 13.9402C8.17351 13.9402 8.23852 13.9477 8.30853 13.9652C8.81109 14.0902 8.91236 14.5327 8.91236 14.5327C10.33 13.7076 11.1864 11.9987 12.184 10.7198C13.5379 8.98579 14.8844 8.00316 15.6132 7.57186C15.6132 7.57186 15.2782 7.30057 15.2594 7.11555C15.2081 6.62924 15.4832 6.45422 15.4832 6.45422C14.8393 5.80289 13.7817 4.78901 13.1416 4.14018C13.1416 4.14018 12.9091 4.3227 12.5928 4.3227C12.5178 4.3227 12.4378 4.3127 12.3565 4.28769C11.8965 4.14893 11.8577 3.83389 11.8577 3.83389Z" fill="#2E7D32"/>
<path d="M8.72812 6.16558L7.51172 8.00456L11.8573 12.4414C11.8573 12.4414 12.5674 11.3187 13.1524 10.4886L8.72812 6.16558Z" fill="#FFECB3"/>
<path opacity="0.68" d="M13.3273 11.0161C13.3273 11.0161 12.4698 11.4523 12.2361 12.7822C12.1473 13.2847 12.2348 13.8347 12.2348 13.8347L12.9423 12.746L13.4485 11.2323L13.3273 11.0161Z" fill="#D69136"/>
<path d="M13.0815 11.305C13.3302 11.0662 13.4127 10.9924 14.1902 10.9362C14.9576 10.8799 15.3101 10.5436 16.2801 10.7449C16.69 10.8299 17.34 11.205 17.175 12.7002C17.1125 13.2702 17.1275 14.5879 17.3962 15.7818C17.6125 16.7419 17.0213 16.4956 16.8588 16.3619C16.2788 15.8856 16.2538 14.8067 16.2538 14.8067C16.2538 14.8067 16.1988 16.4094 15.6126 15.843C15.1376 15.383 15.3764 14.2954 15.3764 14.2954C15.3764 14.2954 15.0689 15.4055 14.5501 14.9629C14.1939 14.6591 14.4589 13.469 14.4589 13.469C14.4589 13.469 14.0452 14.4404 13.7377 14.2791C13.2677 14.0341 13.4902 13.0327 13.4902 13.0327C13.4902 13.0327 13.0602 13.9816 12.7802 13.7903C12.3628 13.5053 12.514 12.6164 12.514 12.6164C12.514 12.6164 12.6365 11.7313 13.0815 11.305Z" fill="#E0E0E0"/>
<path d="M13.8848 11.64C13.8086 11.6213 13.6986 11.965 13.5611 12.1587C13.5086 12.2312 13.3961 12.38 13.2236 12.3675C13.0511 12.355 13.1873 11.8475 13.1473 11.875C13.1074 11.9025 12.9461 12.1737 13.0099 12.4887C13.0274 12.5762 13.1161 12.68 13.2036 12.6937C13.5311 12.7462 13.6748 12.3437 13.6748 12.3437C13.6748 12.3437 13.6261 12.825 13.9498 12.875C14.341 12.935 14.421 12.3187 14.386 12.2962C14.351 12.2737 14.2248 12.6837 13.9461 12.5087C13.7173 12.3637 13.9611 11.66 13.8848 11.64Z" fill="#BDBDBD"/>
<path d="M16.7936 11.9112C16.7936 11.9112 16.8536 12.6837 16.7998 13.1449C16.7661 13.4312 16.7511 13.6936 16.4886 13.6549C16.4248 13.6449 16.2761 13.5211 16.2498 13.0449C16.2223 12.54 16.3273 11.8725 16.2536 11.8225C16.1798 11.7712 16.1761 12.6474 15.8111 13.1962C15.6736 13.4024 15.4424 13.4249 15.4061 12.8812C15.3661 12.29 15.6724 11.59 15.6286 11.53C15.6286 11.53 15.3699 11.8487 15.2199 12.3C15.0699 12.7512 15.0037 12.9637 14.8274 12.8337C14.5112 12.6012 14.9749 11.675 14.9749 11.675C14.9749 11.675 14.6349 11.9787 14.4874 12.4037C14.3937 12.6737 14.4449 13.1174 14.6849 13.2299C14.9674 13.3624 15.1324 13.1262 15.1324 13.1262C15.1324 13.1262 15.1924 13.8824 15.5611 13.8661C15.9149 13.8499 16.0049 13.4512 16.0049 13.4512C16.0049 13.4512 15.9899 13.8361 16.3473 14.0999C16.5211 14.2286 16.9248 14.2499 16.9748 13.7399C17.0561 12.9124 16.7936 11.9112 16.7936 11.9112Z" fill="#BDBDBD"/>
<path d="M3.9502 12.245L8.00373 16.9943C8.00373 16.9943 8.18497 16.7255 8.22622 16.3067C8.26247 15.9417 8.13497 15.4566 8.13497 15.4566L4.11894 10.9373L3.9502 12.245Z" fill="#206022"/>
</svg>
