<svg width="24" height="24" viewBox="0 0 24 24" fill="none" xmlns="http://www.w3.org/2000/svg">
<g clip-path="url(#clip0_299_1269)">
<path d="M11.9999 22.7143C17.9173 22.7143 22.7142 17.9174 22.7142 12C22.7142 6.08265 17.9173 1.28571 11.9999 1.28571C6.08259 1.28571 1.28564 6.08265 1.28564 12C1.28564 17.9174 6.08259 22.7143 11.9999 22.7143Z" fill="#D7E4FB" stroke="#2878F5" stroke-width="1.73116" stroke-linecap="round" stroke-linejoin="round"/>
<path d="M12.0002 12.9942C14.0706 12.9942 15.749 11.3159 15.749 9.2455C15.749 7.17511 14.0706 5.49673 12.0002 5.49673C9.92984 5.49673 8.25146 7.17511 8.25146 9.2455C8.25146 11.3159 9.92984 12.9942 12.0002 12.9942Z" fill="white" stroke="#2878F5" stroke-width="1.73116" stroke-linecap="round" stroke-linejoin="round"/>
<path d="M18.3503 20.6306C16.5732 21.9403 14.377 22.7143 12.0001 22.7143C9.62315 22.7143 7.42698 21.9403 5.6499 20.6306C6.0038 19.2977 6.7693 18.1066 7.84206 17.2298C9.01553 16.2706 10.4845 15.7466 12.0001 15.7466C13.5157 15.7466 14.9847 16.2706 16.1581 17.2298C17.2309 18.1066 17.9963 19.2977 18.3503 20.6306Z" fill="white" stroke="#2878F5" stroke-width="1.73116" stroke-linecap="round" stroke-linejoin="round"/>
</g>
<defs>
<clipPath id="clip0_299_1269">
<rect width="24" height="24" fill="white"/>
</clipPath>
</defs>
</svg>
