<svg width="20" height="20" viewBox="0 0 20 20" fill="none" xmlns="http://www.w3.org/2000/svg">
<path d="M3.00498 2.41487C2.66374 2.50611 2.54375 2.83234 2.58875 3.18233C2.6325 3.53356 4.29991 16.9366 4.34365 17.2003C4.3874 17.4641 4.65114 17.5728 4.95737 17.5516C5.26486 17.5291 5.50609 17.2878 5.48359 17.0253C5.46235 16.7616 3.70744 3.05108 3.66244 2.85359C3.61744 2.6561 3.33371 2.32737 3.00498 2.41487Z" fill="#B0B0B0"/>
<path d="M4.80366 16.6416C4.71117 16.6416 4.62992 16.5729 4.61742 16.4779L2.89001 3.04858C2.87751 2.94609 2.95001 2.85234 3.0525 2.83859C3.155 2.8261 3.24874 2.89734 3.26249 3.00109L4.9899 16.4304C5.00365 16.5329 4.93115 16.6266 4.82741 16.6404C4.81991 16.6416 4.81116 16.6416 4.80366 16.6416Z" fill="#C8C8C8"/>
<path d="M4.62241 11.2007C4.62241 11.2007 4.64865 11.4681 4.72865 11.6169C4.78615 11.7256 4.96614 11.6556 5.11113 11.5256C5.26362 11.3881 6.01358 10.8682 7.19102 10.5919C8.63719 10.2545 10.4658 9.68323 11.597 8.93952C13.2032 7.88458 13.6082 7.06337 14.3356 6.15592C15.0694 5.23847 15.5293 4.80974 16.233 4.42726C16.943 4.04103 17.228 3.98353 17.3192 3.98353C17.4105 3.98353 17.5492 3.73855 17.3342 3.6323C17.1205 3.52481 15.5443 3.41856 15.5443 3.41856L5.03488 9.3845L4.62241 11.2007Z" fill="#CC1935"/>
<path d="M3.58124 2.98983L4.62118 11.2044C4.62118 11.2044 5.1599 10.5732 6.31859 10.1645C7.66477 9.69073 9.48468 9.4145 10.4034 8.94077C11.3221 8.46705 12.5608 7.4871 13.387 6.5234C14.2132 5.5597 14.7819 4.72224 15.6506 4.10603C16.3843 3.58605 17.333 3.6323 17.333 3.6323C17.333 3.6323 16.6143 3.08108 15.2981 3.21982C13.7769 3.37856 11.8283 4.56475 11.0608 4.42851C9.59342 4.16727 9.37968 3.14233 7.92601 2.82109C5.63488 2.31487 3.58124 2.98983 3.58124 2.98983Z" fill="#FE2C23"/>
<path d="M9.48592 8.5583C9.50217 8.65454 10.9846 8.00707 11.7196 7.16587C12.3183 6.4809 12.5608 5.6822 13.112 5.11598C13.6632 4.54976 14.2282 3.98354 14.2282 3.98354C14.2282 3.98354 12.607 4.18228 11.7046 5.25347C10.8021 6.32466 10.4959 7.01213 10.2971 7.33336C10.0984 7.65584 9.47092 8.4658 9.48592 8.5583Z" fill="#FF5F5F"/>
<path d="M5.1874 8.63454C5.38489 8.61204 5.58488 7.41085 6.1211 6.4934C6.65733 5.57595 7.49728 4.81099 7.81851 4.596C8.13975 4.38226 8.52223 4.10602 8.01725 3.83104C7.51228 3.55605 6.60983 3.34106 5.70738 3.34106C4.83242 3.34106 4.60618 3.43231 4.55994 3.5398C4.51369 3.6473 4.77368 6.4159 4.86617 7.05837C4.95867 7.70209 5.04991 8.64954 5.1874 8.63454Z" fill="#FF5F5F"/>
</svg>
