<svg width="32" height="32" viewBox="0 0 32 32" fill="current" xmlns="http://www.w3.org/2000/svg">
<path d="M18.3945 5.51482C17.0846 4.162 14.915 4.162 13.6051 5.51482L7.20711 12.1225C6.83967 12.5019 6.59275 12.9817 6.49748 13.5013C5.72047 17.7386 5.66311 22.0765 6.32782 26.3329L6.56316 27.8398C6.63749 28.3158 7.04744 28.6667 7.52918 28.6667H11.9998C12.368 28.6667 12.6665 28.3682 12.6665 28V18.6667H19.3331V28C19.3331 28.3682 19.6316 28.6667 19.9998 28.6667H24.4704C24.9521 28.6667 25.362 28.3158 25.4364 27.8398L25.6717 26.3329C26.3364 22.0765 26.2791 17.7386 25.5021 13.5013C25.4068 12.9817 25.1599 12.502 24.7924 12.1225L18.3945 5.51482Z" fill="current"/>
</svg>
