<svg viewBox="0 0 20 20" fill="none" xmlns="http://www.w3.org/2000/svg">
<path d="M9.99992 8.95833C10.3451 8.95833 10.6249 9.23815 10.6249 9.58333V13.75C10.6249 14.0952 10.3451 14.375 9.99992 14.375C9.65474 14.375 9.37492 14.0952 9.37492 13.75V9.58333C9.37492 9.23815 9.65474 8.95833 9.99992 8.95833Z" fill="#929292"/>
<path d="M9.99992 7.49999C10.4602 7.49999 10.8333 7.1269 10.8333 6.66666C10.8333 6.20642 10.4602 5.83333 9.99992 5.83333C9.53968 5.83333 9.16658 6.20642 9.16658 6.66666C9.16658 7.1269 9.53968 7.49999 9.99992 7.49999Z" fill="#929292"/>
<path fill-rule="evenodd" clip-rule="evenodd" d="M2.70825 9.99999C2.70825 5.97292 5.97284 2.70833 9.99992 2.70833C14.027 2.70833 17.2916 5.97292 17.2916 9.99999C17.2916 14.0271 14.027 17.2917 9.99992 17.2917C5.97284 17.2917 2.70825 14.0271 2.70825 9.99999ZM9.99992 3.95833C6.6632 3.95833 3.95825 6.66327 3.95825 9.99999C3.95825 13.3367 6.6632 16.0417 9.99992 16.0417C13.3366 16.0417 16.0416 13.3367 16.0416 9.99999C16.0416 6.66327 13.3366 3.95833 9.99992 3.95833Z" fill="#929292"/>
</svg>
