<svg width="24" height="24" viewBox="0 0 24 24" fill="none" xmlns="http://www.w3.org/2000/svg">
<path d="M11.0588 1.45661C9.89861 1.34436 8.70362 1.28575 7.4831 1.28575C6.26256 1.28575 5.06756 1.34436 3.90739 1.45661C2.63072 1.58012 1.65408 2.87411 1.59641 4.44969C1.50735 6.88312 1.46045 9.40922 1.46045 12C1.46045 14.5908 1.50735 17.117 1.59641 19.5504C1.65408 21.126 2.63072 22.42 3.90739 22.5434C5.06756 22.6557 6.26256 22.7143 7.4831 22.7143C8.70362 22.7143 9.89861 22.6557 11.0588 22.5434C12.3354 22.42 13.3121 21.126 13.3697 19.5504C13.4015 18.6822 13.4279 17.8022 13.4488 16.9116V7.08854C13.4279 6.19797 13.4015 5.31792 13.3697 4.44969C13.3121 2.87411 12.3354 1.58012 11.0588 1.45661Z" fill="#D7E4FB"/>
<path d="M13.3697 4.44969C13.3121 2.87411 12.3354 1.58012 11.0588 1.45661C9.89861 1.34436 8.70361 1.28575 7.48309 1.28575C6.26256 1.28575 5.06756 1.34436 3.90739 1.45661C2.63072 1.58012 1.65408 2.87411 1.59641 4.44969C1.50735 6.88312 1.46045 9.40922 1.46045 12C1.46045 14.5908 1.50735 17.117 1.59641 19.5504C1.65408 21.126 2.63072 22.42 3.90739 22.5434C5.06756 22.6557 6.26256 22.7143 7.48309 22.7143C8.70361 22.7143 9.89861 22.6557 11.0588 22.5434C12.3354 22.42 13.3121 21.126 13.3697 19.5504" stroke="#2878F5" stroke-width="1.73116" stroke-linecap="round"/>
<path d="M17.1895 17.0771C19.3489 15.3078 20.4281 14.2289 22.1115 12.155C20.4281 10.0811 19.3489 9.00219 17.1895 7.23281" stroke="#2878F5" stroke-width="1.73116" stroke-linecap="round" stroke-linejoin="round"/>
<path d="M6.86377 12.1553H22.0569" stroke="#2878F5" stroke-width="1.73116" stroke-linecap="round" stroke-linejoin="round"/>
</svg>
