<svg width="20" height="20" viewBox="0 0 20 20" fill="none" xmlns="http://www.w3.org/2000/svg">
<path d="M13.6837 6.93117C14.5226 6.74493 15.6152 5.91247 15.7815 5.5025C15.879 5.26251 15.3927 4.88753 15.2627 4.73628C14.9651 4.3913 15.0851 4.22131 15.2002 3.81008C15.3314 3.34261 15.0201 2.82638 14.5788 2.6239C14.1375 2.42141 13.61 2.48515 13.1661 2.68264C12.7223 2.88013 12.3435 3.19762 11.9722 3.5101C11.701 3.33886 11.2684 2.58265 10.5683 3.07387C10.0845 3.4126 10.0408 4.15007 10.1033 4.73878C10.2495 6.09746 10.5846 6.80243 11.2159 6.99242C12.0135 7.2324 12.8961 7.10616 13.6837 6.93117Z" fill="#FFCA28"/>
<path d="M15.0459 3.02261C14.9397 4.85377 13.1535 6.0687 12.3061 6.60368L12.8561 7.07615C12.8561 7.07615 13.2048 7.08365 13.6823 6.93116C14.501 6.67117 15.6972 5.93621 15.7797 5.50248C15.9009 4.87127 15.2534 5.00876 15.1072 4.51004C15.0309 4.2463 15.4784 3.74758 15.0459 3.02261Z" fill="#E2A610"/>
<path d="M11.9732 3.51135C11.9732 3.51135 11.6545 3.18512 11.4183 3.03638C11.3008 3.25762 11.217 3.4976 11.1758 3.74509C11.102 4.18007 11.1758 4.79754 11.3495 5.25751C11.377 5.32876 11.4795 5.31751 11.4908 5.24251C11.6408 4.25381 11.9732 3.51135 11.9732 3.51135Z" fill="#E2A610"/>
<path d="M9.74574 6.77079C9.74574 6.77079 5.8465 7.19209 4.08753 10.5775C2.32856 13.9629 3.82375 16.0157 5.40644 16.7633C6.98914 17.5109 10.9771 17.7747 13.5712 17.1596C16.1653 16.5445 16.8141 15.2694 16.6929 14.038C16.5166 12.2402 14.8464 11.1351 14.8464 11.1351C14.8464 11.1351 14.9126 8.91481 13.1899 7.47338C11.661 6.19321 9.74574 6.77079 9.74574 6.77079Z" fill="#FFCA28"/>
<path d="M11.3462 12.4679C10.5099 11.4127 9.52226 11.2715 9.20597 10.8927C9.03345 10.6864 8.93219 10.4776 8.97094 10.2188C9.0122 9.9438 9.33099 9.75377 9.57852 9.70752C9.86731 9.65251 10.5561 9.68126 11.135 10.2326C11.2725 10.3626 11.2225 10.5651 11.2187 10.7464C11.2087 11.1352 11.765 11.5127 12.2151 11.1877C12.6664 10.8614 12.3201 10.1351 12.0288 9.78253C11.8088 9.51624 11.0112 8.92992 10.0198 8.83741C9.74104 8.81115 8.61965 8.64488 7.97207 9.87629C7.7858 10.2301 7.71704 11.0852 8.69216 11.8078C8.89594 11.959 9.95357 12.4966 10.2474 12.8454C10.7562 13.4492 10.4074 13.9806 10.0098 14.0506C8.92594 14.2406 8.31211 13.6543 8.19835 13.333C8.11709 13.1042 8.2021 12.8567 8.09709 12.6416C7.98957 12.4204 7.76954 12.3328 7.53702 12.4066C6.77442 12.6491 7.01695 13.483 7.35449 13.9418C7.71579 14.4331 8.15959 14.7294 8.65841 14.8919C10.5199 15.4982 11.415 14.5406 11.5713 13.8393C11.6863 13.3255 11.6738 12.8804 11.3462 12.4679Z" fill="#6B4B46"/>
<path fill-rule="evenodd" clip-rule="evenodd" d="M9.06593 13.1657C9.33423 11.6625 9.80422 9.71875 10.6125 7.99216L11.1785 8.25721C10.4031 9.91355 9.94503 11.7972 9.68117 13.2756C9.54956 14.013 9.46693 14.6457 9.41725 15.0935C9.39242 15.3174 9.37584 15.4948 9.3655 15.6158C9.36033 15.6763 9.35672 15.7227 9.35442 15.7537C9.35327 15.7692 9.35245 15.7809 9.35192 15.7885L9.35135 15.797L9.3512 15.7993C9.3512 15.7993 9.3512 15.7993 9.03935 15.7794C8.7275 15.7595 8.7275 15.7594 8.72751 15.7594L8.72775 15.7556L8.72843 15.7456C8.72904 15.7368 8.72994 15.7241 8.73117 15.7075C8.73363 15.6742 8.73743 15.6255 8.7428 15.5626C8.75355 15.4368 8.77063 15.2541 8.79609 15.0246C8.84699 14.5658 8.93146 13.9191 9.06593 13.1657Z" fill="#6B4B46"/>
<path d="M12.2094 5.99564C13.2644 6.33937 13.4981 7.29307 13.4219 7.55306C13.3306 7.85804 12.1619 6.6706 10.4245 6.74185C9.81707 6.76685 9.99331 6.39437 10.2745 6.17938C10.6458 5.89564 11.2695 5.69065 12.2094 5.99564Z" fill="#6D4C41"/>
<path d="M12.2094 5.99564C13.2644 6.33937 13.4981 7.29307 13.4219 7.55306C13.3306 7.85804 12.1619 6.6706 10.4245 6.74185C9.81707 6.76685 9.99331 6.39437 10.2745 6.17938C10.6458 5.89564 11.2695 5.69065 12.2094 5.99564Z" fill="#6B4B46"/>
<path d="M14.0625 9.35861C14.195 9.26736 14.64 9.42485 14.765 10.2961C14.8262 10.7223 14.8449 11.1348 14.8449 11.1348C14.8449 11.1348 14.32 10.6635 14.1462 10.3323C13.9275 9.91358 13.8425 9.5086 14.0625 9.35861Z" fill="#E2A610"/>
</svg>
