<svg  fill="none" xmlns="http://www.w3.org/2000/svg">
<path d="M16.9581 14.7628H3.04382C2.74378 14.7628 2.5 14.519 2.5 14.219V5.78541C2.5 5.48412 2.74378 5.23909 3.04632 5.23909H16.9568C17.2581 5.23909 17.5031 5.48287 17.5031 5.78541V14.219C17.5019 14.519 17.2581 14.7628 16.9581 14.7628Z" fill="#2E7D32"/>
<path d="M16.9743 13.2401H3.02757C2.73628 13.2401 2.5 13.0038 2.5 12.7125V5.78541C2.5 5.48412 2.74378 5.23909 3.04632 5.23909H16.9568C17.2581 5.23909 17.5031 5.48287 17.5031 5.78541V12.7125C17.5019 13.0038 17.2656 13.2401 16.9743 13.2401Z" fill="#66BB6A"/>
<path d="M6.96065 10.1717C6.96065 10.018 6.9069 9.88798 6.79941 9.78298C6.69192 9.67799 6.50943 9.58174 6.25319 9.49675C5.89696 9.388 5.63697 9.24676 5.47448 9.07177C5.31074 8.89678 5.22949 8.67429 5.22949 8.40555C5.22949 8.13057 5.30949 7.90558 5.46948 7.73059C5.62947 7.55435 5.84946 7.4506 6.1282 7.41686V6.98313C6.1282 6.91938 6.18069 6.86688 6.24444 6.86688H6.38568C6.44943 6.86688 6.50193 6.91938 6.50193 6.98313V7.41936C6.78316 7.4581 7.0019 7.5756 7.15814 7.77309C7.29813 7.95058 7.37563 8.18557 7.39063 8.4793C7.39313 8.5368 7.34563 8.58429 7.28813 8.58429H7.0294C6.9744 8.58429 6.9319 8.54055 6.9269 8.48555C6.91315 8.29431 6.85816 8.13932 6.76191 8.02057C6.64942 7.88183 6.49818 7.81184 6.30819 7.81184C6.10945 7.81184 5.95695 7.86308 5.85196 7.96683C5.74697 8.06932 5.69322 8.21431 5.69322 8.39805C5.69322 8.5693 5.74947 8.70554 5.86071 8.80678C5.97195 8.90803 6.15569 9.00052 6.41068 9.08302C6.66567 9.16551 6.86441 9.25676 7.00815 9.35675C7.15064 9.45675 7.25689 9.57174 7.32438 9.70424C7.39188 9.83673 7.42563 9.99172 7.42563 10.1692C7.42563 10.4517 7.34063 10.6792 7.17064 10.8517C7.00065 11.0242 6.76316 11.1267 6.45693 11.1579V11.5204C6.45693 11.5841 6.40443 11.6366 6.34068 11.6366H6.20069C6.13694 11.6366 6.08445 11.5841 6.08445 11.5204V11.1579C5.77321 11.1292 5.52948 11.0192 5.35324 10.8254C5.19574 10.6529 5.10825 10.4254 5.092 10.1442C5.08825 10.0867 5.137 10.0392 5.19449 10.0392H5.45573C5.50823 10.0392 5.55323 10.078 5.55698 10.1305C5.57072 10.3192 5.63072 10.4679 5.73697 10.5767C5.85946 10.7017 6.03195 10.7654 6.25694 10.7654C6.47568 10.7654 6.64817 10.7129 6.77441 10.6067C6.89815 10.4979 6.96065 10.3542 6.96065 10.1717Z" fill="white"/>
<path d="M6.4557 11.2616L6.08447 11.1554L6.12697 7.42805V7.30181L6.5007 7.41805L6.4557 11.1529V11.2616Z" fill="white"/>
<path opacity="0.5" d="M12.5984 11.5516C13.8755 11.5516 14.9108 10.5163 14.9108 9.23918C14.9108 7.96209 13.8755 6.9268 12.5984 6.9268C11.3213 6.9268 10.286 7.96209 10.286 9.23918C10.286 10.5163 11.3213 11.5516 12.5984 11.5516Z" fill="#2E7D32"/>
<path d="M15.3075 6.13784C15.415 6.81292 15.9501 7.34799 16.6252 7.4555V11.0235C15.9501 11.131 15.415 11.666 15.3075 12.3411H4.67742C4.5399 11.7023 4.01984 11.2097 3.37476 11.1072V7.53927C4.0786 7.428 4.62866 6.85293 4.70367 6.13784H15.3075ZM15.5375 5.88781H4.46114C4.46239 5.91531 4.46364 5.94281 4.46364 5.97157C4.46364 6.71041 3.86482 7.30924 3.12598 7.30924V11.3385C3.83607 11.3385 4.41739 11.8923 4.46114 12.5924H15.5388C15.5388 11.8536 16.1376 11.2547 16.8764 11.2547V7.22548C16.1364 7.22548 15.5375 6.62665 15.5375 5.88781Z" fill="#2E7D32"/>
<path d="M11.377 5.23909H8.62585V14.7628H11.377V5.23909Z" fill="#FFECB3"/>
<path d="M11.377 13.2401H8.62585V14.7625H11.377V13.2401Z" fill="#FFC06C"/>
</svg>
