<svg width="20" height="20" viewBox="0 0 20 20" fill="none" xmlns="http://www.w3.org/2000/svg">
<path d="M13.6838 6.93117C14.5226 6.74493 15.6153 5.91247 15.7815 5.5025C15.879 5.26251 15.3927 4.88753 15.2627 4.73628C14.9652 4.3913 15.0852 4.22131 15.2002 3.81008C15.3315 3.34261 15.0202 2.82638 14.5789 2.6239C14.1376 2.42141 13.61 2.48515 13.1662 2.68264C12.7224 2.88013 12.3436 3.19762 11.9723 3.5101C11.701 3.33886 11.2685 2.58265 10.5684 3.07387C10.0846 3.4126 10.0408 4.15007 10.1033 4.73878C10.2496 6.09746 10.5846 6.80243 11.216 6.99242C12.0136 7.2324 12.8962 7.10616 13.6838 6.93117Z" fill="#FFCA28"/>
<path d="M15.046 3.02262C14.9398 4.85378 13.1536 6.06871 12.3062 6.60368L12.8561 7.07616C12.8561 7.07616 13.2049 7.08366 13.6823 6.93117C14.501 6.67118 15.6972 5.93622 15.7797 5.50249C15.901 4.87127 15.2535 5.00877 15.1073 4.51004C15.031 4.24631 15.4785 3.74758 15.046 3.02262Z" fill="#E2A610"/>
<path d="M11.9734 3.51134C11.9734 3.51134 11.6546 3.18511 11.4184 3.03637C11.3009 3.25761 11.2172 3.4976 11.1759 3.74508C11.1022 4.18006 11.1759 4.79753 11.3496 5.2575C11.3771 5.32875 11.4796 5.3175 11.4909 5.2425C11.6409 4.25381 11.9734 3.51134 11.9734 3.51134Z" fill="#E2A610"/>
<path d="M9.74583 6.77078C9.74583 6.77078 5.84659 7.19208 4.08762 10.5775C2.32865 13.9629 3.82384 16.0157 5.40654 16.7633C6.98923 17.5109 10.9772 17.7747 13.5713 17.1596C16.1654 16.5445 16.8142 15.2693 16.6929 14.0379C16.5167 12.2402 14.8465 11.1351 14.8465 11.1351C14.8465 11.1351 14.9127 8.9148 13.19 7.47337C11.6611 6.19321 9.74583 6.77078 9.74583 6.77078Z" fill="#FFCA28"/>
<path d="M11.3465 12.4679C10.5102 11.4127 9.52257 11.2715 9.20628 10.8927C9.03376 10.6864 8.93249 10.4776 8.97125 10.2188C9.0125 9.9438 9.33129 9.75377 9.57883 9.70752C9.86761 9.65251 10.5564 9.68126 11.1353 10.2326C11.2728 10.3626 11.2228 10.5651 11.219 10.7464C11.209 11.1352 11.7653 11.5127 12.2154 11.1877C12.6667 10.8614 12.3204 10.1351 12.0291 9.78253C11.8091 9.51624 11.0115 8.92992 10.0201 8.83741C9.74135 8.81115 8.61996 8.64488 7.97237 9.87629C7.7861 10.2301 7.71734 11.0852 8.69246 11.8078C8.89624 11.959 9.95387 12.4966 10.2477 12.8454C10.7565 13.4492 10.4077 13.9806 10.0101 14.0506C8.92624 14.2406 8.31242 13.6543 8.19865 13.333C8.11739 13.1042 8.2024 12.8567 8.09739 12.6416C7.98988 12.4204 7.76985 12.3328 7.53732 12.4066C6.77473 12.6491 7.01726 13.483 7.3548 13.9418C7.71609 14.4331 8.1599 14.7294 8.65871 14.8919C10.5202 15.4982 11.4153 14.5406 11.5716 13.8393C11.6866 13.3255 11.6741 12.8804 11.3465 12.4679Z" fill="#6B4B46"/>
<path fill-rule="evenodd" clip-rule="evenodd" d="M9.06596 13.1657C9.33426 11.6625 9.80425 9.71877 10.6125 7.99217L11.1785 8.25723C10.4031 9.91356 9.94506 11.7972 9.6812 13.2756C9.54959 14.013 9.46696 14.6457 9.41728 15.0936C9.39245 15.3174 9.37587 15.4948 9.36553 15.6159C9.36036 15.6764 9.35675 15.7227 9.35445 15.7537C9.3533 15.7692 9.35248 15.7809 9.35195 15.7885L9.35138 15.797L9.35123 15.7993C9.35123 15.7993 9.35123 15.7993 9.03938 15.7794C8.72753 15.7595 8.72753 15.7594 8.72754 15.7594L8.72778 15.7556L8.72846 15.7456C8.72907 15.7368 8.72997 15.7241 8.7312 15.7075C8.73366 15.6743 8.73746 15.6256 8.74283 15.5626C8.75358 15.4368 8.77066 15.2541 8.79612 15.0246C8.84702 14.5658 8.93149 13.9191 9.06596 13.1657Z" fill="#6B4B46"/>
<path d="M12.2094 5.99565C13.2643 6.33939 13.498 7.29309 13.4218 7.55307C13.3305 7.85806 12.1619 6.67062 10.4244 6.74186C9.81698 6.76686 9.99322 6.39438 10.2745 6.17939C10.6457 5.89566 11.2694 5.69067 12.2094 5.99565Z" fill="#6D4C41"/>
<path d="M12.2094 5.99565C13.2643 6.33939 13.498 7.29309 13.4218 7.55307C13.3305 7.85806 12.1619 6.67062 10.4244 6.74186C9.81698 6.76686 9.99322 6.39438 10.2745 6.17939C10.6457 5.89566 11.2694 5.69067 12.2094 5.99565Z" fill="#6B4B46"/>
<path d="M14.0627 9.3586C14.1952 9.26735 14.6401 9.42484 14.7651 10.296C14.8264 10.7223 14.8451 11.1348 14.8451 11.1348C14.8451 11.1348 14.3202 10.6635 14.1464 10.3323C13.9277 9.91357 13.8427 9.50859 14.0627 9.3586Z" fill="#E2A610"/>
</svg>
