<svg viewBox="0 0 20 20" fill="none" xmlns="http://www.w3.org/2000/svg">
<path d="M14.5299 3.89132C14.5299 3.13247 14.1474 2.47239 13.3987 2.47239C12.65 2.47239 12.2775 3.13247 12.2775 3.89132V9.51327C12.2775 10.0258 11.6163 10.4409 11.1038 10.4409H7.39527C6.14409 10.4409 5.11914 8.38938 5.11914 9.64204V12.4274C5.11914 15.2327 6.19158 17.5293 9.97264 17.5293C13.7537 17.5293 14.9099 15.1227 14.9099 12.7287C14.9099 11.8648 14.5524 11.3885 14.5524 10.9334C14.5524 10.4784 14.5299 3.89132 14.5299 3.89132Z" fill="url(#paint0_radial_435_5197)"/>
<path d="M13.4 2.84744C13.6324 2.84744 13.8099 2.9362 13.9424 3.11872C14.0799 3.30749 14.1549 3.58253 14.1549 3.89382C14.1549 3.96008 14.1774 10.4859 14.1774 10.9347C14.1774 11.1847 14.2524 11.4173 14.3324 11.6623C14.4274 11.9561 14.5349 12.2886 14.5349 12.7299C14.5349 13.605 14.3674 14.8452 13.5724 15.7853C12.8037 16.6942 11.5926 17.1555 9.97264 17.1555C8.33772 17.1555 7.14278 16.6992 6.42032 15.7978C5.80535 15.0302 5.49412 13.8976 5.49412 12.4299V9.81706C5.52662 9.84456 5.55787 9.87206 5.58787 9.89707C6.03659 10.2859 6.65281 10.8184 7.39527 10.8184H11.1063C11.8225 10.8184 12.655 10.2496 12.655 9.51577V3.89132C12.6537 3.71754 12.69 2.84744 13.4 2.84744ZM13.4 2.47239C12.6512 2.47239 12.2788 3.13247 12.2788 3.89132V9.51327C12.2788 10.0258 11.6175 10.4409 11.1051 10.4409H7.39527C6.43657 10.4409 5.61036 9.23699 5.27663 9.23699C5.17539 9.23699 5.11914 9.3495 5.11914 9.64204V12.4274C5.11914 15.2327 6.19158 17.5293 9.97264 17.5293C13.7537 17.5293 14.9099 15.1227 14.9099 12.7287C14.9099 11.8648 14.5524 11.3885 14.5524 10.9334C14.5524 10.4784 14.5299 3.89132 14.5299 3.89132C14.5299 3.13372 14.1474 2.47239 13.4 2.47239Z" fill="#EDA600"/>
<path opacity="0.4" d="M9.77158 15.2579C11.8639 15.2579 13.5601 13.9852 13.5601 12.4151C13.5601 10.845 11.8639 9.57224 9.77158 9.57224C7.67922 9.57224 5.98303 10.845 5.98303 12.4151C5.98303 13.9852 7.67922 15.2579 9.77158 15.2579Z" fill="url(#paint1_radial_435_5197)"/>
<path d="M11.2886 12.3162C10.6099 12.3162 10.0599 11.7661 10.0599 11.0873V8.28694C10.0599 7.6081 10.6099 7.18305 11.2886 7.18305C11.9673 7.18305 12.3923 7.6081 12.3923 8.28694L12.5173 11.0873C12.5173 11.7661 11.9673 12.3162 11.2886 12.3162Z" fill="url(#paint2_radial_435_5197)"/>
<path d="M6.33841 12.4809C5.64845 12.4809 5.21472 12.0472 5.21472 11.3572V9.59857C5.21472 8.9086 5.64845 8.47488 6.33841 8.47488C7.02838 8.47488 7.4621 8.9086 7.4621 9.59857V11.3585C7.4621 12.0472 7.02713 12.4809 6.33841 12.4809Z" fill="url(#paint3_radial_435_5197)"/>
<path d="M8.84117 12.4609C8.14746 12.4609 7.58374 11.8984 7.58374 11.2035V8.89734C7.58374 8.20363 8.14621 7.63991 8.84117 7.63991C9.53489 7.63991 9.97362 8.20238 9.97362 8.89734L10.0986 11.2035C10.0986 11.8984 9.53614 12.4609 8.84117 12.4609Z" fill="url(#paint4_radial_435_5197)"/>
<path d="M11.4397 12.7619C11.8184 12.8119 12.3134 13.0381 12.3934 13.4593C12.4722 13.8755 12.1022 14.1805 11.7634 14.3243C11.5422 14.4193 11.7334 14.7418 11.9522 14.648C12.4522 14.4343 12.8846 13.9368 12.7546 13.3593C12.6197 12.7606 11.9934 12.4594 11.4397 12.3869C11.201 12.3544 11.2035 12.7306 11.4397 12.7619Z" fill="#EDA600"/>
<path d="M11.2499 7.43204C11.7211 7.43204 12.1249 7.81458 12.1249 8.28589V11.0875C12.1249 11.5588 11.7511 11.9413 11.2799 11.9413C10.8824 11.9413 10.5362 11.6601 10.4512 11.2725C10.4137 11.1 10.2625 10.9787 10.0875 10.9787H10.07C9.88749 10.9875 9.73875 11.1275 9.7175 11.31C9.66501 11.7538 9.29003 12.0876 8.84255 12.0876C8.37132 12.0876 7.98509 11.7113 7.9626 11.24C7.9526 11.04 7.7876 10.8762 7.58762 10.8762H7.57887C7.37513 10.8762 7.25013 11.0612 7.25013 11.2638V11.3588C7.25013 11.8401 6.8564 12.2326 6.37518 12.2326C5.89395 12.2326 5.50022 11.8401 5.50022 11.3588V9.59981C5.50022 9.1185 5.87395 8.72595 6.35643 8.72595C6.82265 8.72595 7.19639 9.07224 7.21888 9.53855C7.22888 9.73857 7.38513 9.87609 7.58386 9.87609H7.59261C7.79635 9.87609 8.00009 9.74358 8.00009 9.5398V8.89847C8.00009 8.41216 8.37507 8.01586 8.8613 8.01586C9.26628 8.01586 9.60751 8.29089 9.705 8.68344C9.7475 8.85221 9.89374 8.96723 10.0637 8.96723C10.0787 8.96723 10.0625 8.96598 10.0775 8.96473C10.265 8.94097 10.3737 8.78221 10.3737 8.59218V8.28589C10.375 7.81458 10.7787 7.43204 11.2499 7.43204ZM11.2799 7.00073H11.2549C10.575 7.00073 9.99999 7.60706 9.99999 8.28589V8.59218C9.875 8.04586 9.42002 7.64081 8.83255 7.64081C8.13884 7.64081 7.62511 8.20338 7.62511 8.89847V9.5398C7.50012 8.87722 7.04639 8.34965 6.37643 8.34965C5.68646 8.3509 5.12524 8.90972 5.12524 9.59981V11.36C5.12524 12.0501 5.68521 12.6089 6.37518 12.6089C7.06514 12.6089 7.62511 12.0501 7.62511 11.36V11.2638C7.62511 11.9301 8.18633 12.4614 8.86005 12.4614C9.50376 12.4614 10.025 12.0064 10.0987 11.3825C10.22 11.9338 10.7062 12.3764 11.2937 12.3764H11.2824C11.9611 12.3764 12.4999 11.7663 12.4999 11.0875V8.28589C12.4999 7.60706 11.9586 7.00073 11.2799 7.00073Z" fill="#EDA600"/>
<path d="M7.58601 11.5045C7.45977 11.487 7.29228 11.3395 7.29228 11.2108L7.24353 9.61462C7.24353 9.48712 7.46102 9.23339 7.58851 9.21589C7.74225 9.19464 7.97724 9.43213 7.97724 9.58212L7.92849 11.1945C7.92724 11.3458 7.73975 11.527 7.58601 11.5045Z" fill="#EDA600"/>
<path d="M10.0001 11.8393C9.86256 11.8393 9.86631 11.7568 9.86631 11.6193L9.75256 8.83446C9.75256 8.69697 9.86256 8.58947 10.0001 8.58947C10.1375 8.58947 10.3388 8.61447 10.3388 8.75197L10.3225 11.6018C10.3225 11.7406 10.1375 11.8393 10.0001 11.8393Z" fill="#EDA600"/>
<path d="M13.7211 14.9408C13.4436 14.9358 12.9824 14.5208 12.6412 13.7396C12.3762 13.1334 11.8737 12.8971 10.8487 12.8971C10.5638 12.8971 10.2413 12.9159 9.86255 12.9546C9.8363 12.9571 9.8088 12.9584 9.78255 12.9584C9.35632 12.9584 8.90385 12.6309 8.75135 12.2134C8.65136 11.9384 8.64761 11.4985 8.83885 11.2247C8.95134 11.0635 9.12009 10.981 9.33882 10.981C9.71755 10.981 11.8237 10.7247 12.1362 10.6872C12.9161 10.8922 14.8398 11.5909 14.9198 12.5109C15.0098 13.5483 14.8835 14.2633 14.5423 14.6345C14.3511 14.842 14.0936 14.9433 13.7536 14.9433L13.7211 14.9408Z" fill="url(#paint5_linear_435_5197)"/>
<path d="M12.1239 10.874C12.9914 11.1077 14.6688 11.7815 14.7338 12.5227C14.84 13.7476 14.6138 14.2763 14.4051 14.5038C14.2513 14.6713 14.0388 14.7525 13.7551 14.7525H13.7263C13.5489 14.7488 13.1364 14.4001 12.8139 13.6639C12.5164 12.9851 11.9477 12.7089 10.8502 12.7089C10.559 12.7089 10.2303 12.7277 9.84529 12.7664C9.8253 12.7689 9.8053 12.7689 9.78405 12.7689C9.43157 12.7689 9.05659 12.4952 8.92909 12.1464C8.8441 11.9127 8.84535 11.5427 8.99534 11.329C9.07284 11.2177 9.18283 11.1652 9.34157 11.1652C9.71905 11.1652 11.6702 10.9302 12.1239 10.874ZM12.1489 10.4928C12.1489 10.4928 9.73405 10.7903 9.33907 10.7903C8.51411 10.7903 8.37787 11.7352 8.57536 12.2752C8.76035 12.7814 9.28657 13.1439 9.7828 13.1439C9.8153 13.1439 9.84904 13.1426 9.88154 13.1389C10.2578 13.1014 10.5765 13.0826 10.849 13.0826C11.9339 13.0826 12.2739 13.3676 12.4689 13.8138C12.8051 14.5838 13.3051 15.12 13.7176 15.1275H13.7538C15.1238 15.1275 15.2038 13.6151 15.1063 12.4902C14.9963 11.219 12.1489 10.4928 12.1489 10.4928Z" fill="#EDA600"/>
<defs>
<radialGradient id="paint0_radial_435_5197" cx="0" cy="0" r="1" gradientUnits="userSpaceOnUse" gradientTransform="translate(9.81686 8.09793) rotate(13.5466) scale(6.75479 9.13245)">
<stop stop-color="#FFB300"/>
<stop offset="0.6888" stop-color="#FFCA28"/>
<stop offset="1" stop-color="#FFB300"/>
</radialGradient>
<radialGradient id="paint1_radial_435_5197" cx="0" cy="0" r="1" gradientUnits="userSpaceOnUse" gradientTransform="translate(9.77133 12.4153) scale(3.34907 3.34967)">
<stop offset="0.3" stop-color="#FBC02D"/>
<stop offset="1" stop-color="#FFB300" stop-opacity="0"/>
</radialGradient>
<radialGradient id="paint2_radial_435_5197" cx="0" cy="0" r="1" gradientUnits="userSpaceOnUse" gradientTransform="translate(11.2806 8.38256) rotate(89.7243) scale(3.06335 0.978118)">
<stop offset="0.5993" stop-color="#FFCA28"/>
<stop offset="1" stop-color="#FFB300"/>
</radialGradient>
<radialGradient id="paint3_radial_435_5197" cx="0" cy="0" r="1" gradientUnits="userSpaceOnUse" gradientTransform="translate(6.31247 9.34391) rotate(90.1029) scale(2.47743 0.876554)">
<stop offset="0.5993" stop-color="#FFCA28"/>
<stop offset="1" stop-color="#FFB300"/>
</radialGradient>
<radialGradient id="paint4_radial_435_5197" cx="0" cy="0" r="1" gradientUnits="userSpaceOnUse" gradientTransform="translate(8.77474 8.51574) rotate(89.4997) scale(3.101 1.05202)">
<stop offset="0.5993" stop-color="#FFCA28"/>
<stop offset="1" stop-color="#FFB300"/>
</radialGradient>
<linearGradient id="paint5_linear_435_5197" x1="10.9665" y1="11.7903" x2="14.5598" y2="13.562" gradientUnits="userSpaceOnUse">
<stop offset="0.345" stop-color="#FFCA28"/>
<stop offset="1" stop-color="#FFB300"/>
</linearGradient>
</defs>
</svg>
