<svg width="20" height="20" viewBox="0 0 20 20" fill="none" xmlns="http://www.w3.org/2000/svg">
<path d="M16.9439 14.9868C16.6815 14.8868 16.394 14.8118 16.094 14.7493C15.644 14.6493 15.1565 14.5868 14.6691 14.5493L14.6566 14.5618V14.4493C15.1565 14.2994 15.6315 14.0244 16.019 13.6369C16.369 13.2869 16.6565 12.8369 16.8439 12.287C16.8939 12.2745 16.9314 12.237 16.9689 12.1995C17.3189 11.8495 17.5064 10.712 17.3939 10.5496C17.4439 10.2371 17.6189 8.81214 17.1439 7.53721C17.1314 7.51221 17.1189 7.47472 17.1064 7.44972C17.0814 7.38722 17.0564 7.33722 17.0314 7.27473C16.9689 7.13723 16.8939 6.99974 16.8189 6.86225C16.8064 6.83725 16.7815 6.81225 16.769 6.77475C16.694 6.67476 16.619 6.56226 16.544 6.47477C16.5065 6.42477 16.4565 6.37477 16.419 6.32478C15.8577 5.73856 15.009 5.32608 13.7379 5.32483C12.4679 5.32608 11.868 5.73856 11.3067 6.32478C11.2692 6.37477 11.2192 6.42477 11.1817 6.47477C11.1068 6.56226 11.0318 6.67476 10.9568 6.77475C10.9443 6.81225 10.9193 6.83725 10.9068 6.86225C10.8318 6.99974 10.7568 7.13723 10.6943 7.27473C10.6693 7.33722 10.6443 7.38722 10.6193 7.44972C10.6068 7.47472 10.5943 7.51221 10.5818 7.53721C10.1068 8.81214 10.2818 10.2371 10.3318 10.5496C10.2193 10.712 10.4068 11.8495 10.7568 12.1995C10.7943 12.237 10.8318 12.2745 10.8818 12.287C11.0693 12.8369 11.3567 13.2869 11.7067 13.6369C12.0942 14.0244 12.3192 14.2994 12.8192 14.4493V14.5618C11.7442 14.6481 10.7305 14.8856 9.95931 15.2731C9.61808 15.4443 9.32434 15.6443 9.09436 15.8743C8.75687 16.2118 8.55688 16.6117 8.55688 17.0867V17.4992H11.2767H17.5339V15.2381C17.3489 15.1456 17.1514 15.0618 16.9439 14.9868Z" fill="#1798F3"/>
<path d="M9.95797 15.2731C9.75548 15.1668 9.53549 15.0706 9.30051 14.9868C9.03802 14.8868 8.75054 14.8118 8.45055 14.7493C8.00058 14.6493 7.5131 14.5868 7.02563 14.5493L7.01313 14.5618V14.4493C7.5131 14.2994 7.98808 14.0244 8.37555 13.6369C8.72554 13.2869 9.01302 12.8369 9.20051 12.287C9.25051 12.2745 9.28801 12.237 9.3255 12.1995C9.67549 11.8495 9.86298 10.712 9.75048 10.5496C9.80048 10.2371 9.97547 8.81214 9.5005 7.53721C9.488 7.51221 9.4755 7.47472 9.463 7.44972C9.438 7.38722 9.413 7.33722 9.388 7.27473C9.3255 7.13723 9.25051 6.99974 9.17551 6.86225C9.16301 6.83725 9.13801 6.81225 9.12551 6.77475C9.05052 6.67476 8.97552 6.56226 8.90053 6.47477C8.86303 6.42477 8.81303 6.37477 8.77553 6.32478C8.21431 5.73856 7.36561 5.32608 6.09442 5.32483C4.82449 5.32608 4.22452 5.73856 3.6633 6.32478C3.62581 6.37477 3.57581 6.42477 3.53831 6.47477C3.46331 6.56226 3.38832 6.67476 3.31332 6.77475C3.30082 6.81225 3.27582 6.83725 3.26332 6.86225C3.18833 6.99974 3.11333 7.13723 3.05084 7.27473C3.02584 7.33722 3.00084 7.38722 2.97584 7.44972C2.96334 7.47472 2.95084 7.51221 2.93834 7.53721C2.46337 8.81214 2.63836 10.2371 2.68835 10.5496C2.57586 10.712 2.76335 11.8495 3.11333 12.1995C3.15083 12.237 3.18833 12.2745 3.23833 12.287C3.42582 12.8369 3.7133 13.2869 4.06328 13.6369C4.45076 14.0244 4.67575 14.2994 5.17572 14.4493V14.5618C4.18953 14.6418 3.25333 14.8481 2.51086 15.1806V17.4992H8.55555H11.2754V17.0867C11.2767 16.2805 10.7517 15.6893 9.95797 15.2731Z" fill="#1976D2"/>
</svg>
