<svg width="32" height="32" viewBox="0 0 32 32" fill="current" xmlns="http://www.w3.org/2000/svg">
<path d="M15.9998 5C13.2384 5 10.9998 7.23858 10.9998 10C10.9998 12.7614 13.2384 15 15.9998 15C18.7613 15 20.9998 12.7614 20.9998 10C20.9998 7.23858 18.7613 5 15.9998 5Z" fill="current"/>
<path d="M10.6665 17.6667C7.90508 17.6667 5.6665 19.9052 5.6665 22.6667V24.251C5.6665 25.2554 6.39435 26.1117 7.38553 26.2735C13.0906 27.2049 18.909 27.2049 24.6141 26.2735C25.6053 26.1117 26.3332 25.2554 26.3332 24.251V22.6667C26.3332 19.9052 24.0946 17.6667 21.3332 17.6667H20.8787C20.6327 17.6667 20.3882 17.7056 20.1544 17.7819L19.0004 18.1587C17.0507 18.7954 14.949 18.7954 12.9993 18.1587L11.8453 17.7819C11.6114 17.7056 11.367 17.6667 11.121 17.6667H10.6665Z" fill="current"/>
</svg>
