<svg viewBox="0 0 20 20" fill="none" xmlns="http://www.w3.org/2000/svg">
<path d="M9.99912 2.49979C5.86183 2.49979 2.49951 5.86211 2.49951 9.99939C2.49951 14.1367 5.86183 17.499 9.99912 17.499C14.1364 17.499 17.4987 14.1367 17.4987 9.99939C17.4987 5.86211 14.1364 2.49979 9.99912 2.49979ZM16.2488 9.99939C16.2488 11.4993 15.7238 12.8742 14.8364 13.9492L6.04932 5.16215C7.12427 4.27469 8.4992 3.74972 9.99912 3.74972C13.4489 3.74972 16.2488 6.54957 16.2488 9.99939ZM3.74945 9.99939C3.74945 8.49947 4.27442 7.12454 5.16187 6.0496L13.9489 14.8366C12.874 15.7241 11.499 16.2491 9.99912 16.2491C6.5493 16.2491 3.74945 13.4492 3.74945 9.99939Z" fill="#CC3333"/>
<path d="M9.51164 2.87476C7.87423 2.87476 6.37431 3.43723 5.17437 4.37468L5.16187 4.36218L5.02438 4.49967C3.48696 5.7871 2.49951 7.7245 2.49951 9.88689C2.49951 13.7617 5.63685 16.899 9.51164 16.899C13.3864 16.899 16.5238 13.7617 16.5238 9.88689C16.5238 6.01209 13.3864 2.87476 9.51164 2.87476ZM6.04932 5.16214C7.12427 4.27468 8.4992 3.74971 9.99912 3.74971C13.4489 3.74971 16.2488 6.54956 16.2488 9.99938C16.2488 11.4993 15.7238 12.8742 14.8364 13.9492L6.01183 5.19963L6.04932 5.16214ZM3.74945 9.99938C3.74945 8.52446 4.26192 7.16203 5.12437 6.09959L13.9489 14.8366C12.874 15.7241 11.499 16.2491 9.99912 16.2491C6.5493 16.2491 3.74945 13.4492 3.74945 9.99938Z" fill="#F44336"/>
<path d="M7.62422 3.36223C7.83671 3.31223 8.1492 3.16224 8.36168 3.22474C8.48668 3.26223 8.59917 3.41223 8.54917 3.53722C8.51168 3.63721 8.41168 3.69971 8.29919 3.72471C7.78672 3.8622 7.33674 4.01219 6.88676 4.23718C5.99931 4.69966 5.19935 5.39962 4.62438 6.21208C4.38689 6.54956 4.1994 6.89954 3.89942 7.18703C3.87442 7.21203 3.83692 7.23702 3.79943 7.23702C3.77443 7.23702 3.74943 7.23702 3.73693 7.22452C3.58694 7.16203 3.56194 7.08703 3.58694 6.93704C3.61194 6.81205 3.64943 6.68705 3.71193 6.57456C3.82442 6.34957 3.98692 6.14958 4.12441 5.93709C4.3619 5.57461 4.63688 5.23713 4.94936 4.93715C5.79932 4.14969 6.89926 3.54972 7.62422 3.36223Z" fill="#FF8A80"/>
<path d="M6.0493 5.16214L5.79932 5.41213L14.6863 14.2992L14.9113 14.0242L6.0493 5.16214Z" fill="#CC3333"/>
</svg>
