<svg width="24" height="24" viewBox="0 0 24 24" fill="none" xmlns="http://www.w3.org/2000/svg">
<path d="M19.219 1.29053C20.5308 2.60234 21.4507 4.23281 21.9032 6.00002M4.71058 1.29053C3.39877 2.60234 2.4789 4.23281 2.02637 6.00002L4.71058 1.29053Z" stroke="#2878F5" stroke-width="1.73288" stroke-linecap="round" stroke-linejoin="round"/>
<path d="M9.73242 21.3564C10.1659 22.1647 11.0188 22.7143 12 22.7143C12.9813 22.7143 13.8341 22.1647 14.2676 21.3564" stroke="#2878F5" stroke-width="1.73288" stroke-linecap="round" stroke-linejoin="round"/>
<path d="M7.77622 4.32097C8.89642 3.20077 10.4158 2.57144 12 2.57144C13.5842 2.57144 15.1035 3.20077 16.2237 4.32097C17.3439 5.44119 17.9732 6.96051 17.9732 8.54473C17.9732 9.47688 18.127 10.3527 18.3584 11.2486C18.4059 11.3968 18.4567 11.5388 18.5107 11.6749C18.8847 12.6202 20.0148 12.9232 20.7751 13.5981C21.7304 14.4461 21.4999 16.0754 20.623 16.7238C20.623 16.7238 19.1489 18 12 18C4.85109 18 3.37692 16.7238 3.37692 16.7238C2.5001 16.0754 2.2696 14.4461 3.22486 13.5981C3.98517 12.9232 5.11521 12.6202 5.48937 11.6749C5.81251 10.8585 6.02669 9.83115 6.02669 8.54473C6.02669 6.96051 6.65601 5.44119 7.77622 4.32097Z" fill="#D7E4FB" stroke="#2878F5" stroke-width="1.73288" stroke-linecap="round" stroke-linejoin="round"/>
</svg>
