<svg width="20" height="20" viewBox="0 0 20 20" fill="none" xmlns="http://www.w3.org/2000/svg">
<path d="M3.00488 2.41487C2.66365 2.50611 2.54366 2.83234 2.58866 3.18233C2.6324 3.53356 4.29982 16.9366 4.34356 17.2003C4.38731 17.4641 4.65105 17.5728 4.95728 17.5516C5.26476 17.5291 5.506 17.2878 5.4835 17.0253C5.46225 16.7616 3.70735 3.05108 3.66235 2.85359C3.61735 2.6561 3.33362 2.32737 3.00488 2.41487Z" fill="#B0B0B0"/>
<path d="M4.80372 16.6416C4.71123 16.6416 4.62998 16.5729 4.61748 16.4779L2.89007 3.04858C2.87757 2.94609 2.95007 2.85234 3.05256 2.83859C3.15506 2.8261 3.2488 2.89734 3.26255 3.00109L4.98996 16.4304C5.00371 16.5329 4.93122 16.6266 4.82747 16.6404C4.81997 16.6416 4.81122 16.6416 4.80372 16.6416Z" fill="#C8C8C8"/>
<path d="M4.62256 11.2007C4.62256 11.2007 4.64881 11.4681 4.7288 11.6169C4.7863 11.7256 4.96629 11.6556 5.11128 11.5256C5.26377 11.3881 6.01374 10.8682 7.19117 10.5919C8.63735 10.2545 10.466 9.68323 11.5972 8.93952C13.2034 7.88458 13.6083 7.06337 14.3358 6.15592C15.0695 5.23847 15.5295 4.80974 16.2332 4.42726C16.9432 4.04103 17.2281 3.98353 17.3194 3.98353C17.4106 3.98353 17.5494 3.73855 17.3344 3.6323C17.1206 3.52481 15.5445 3.41856 15.5445 3.41856L5.03504 9.3845L4.62256 11.2007Z" fill="#CC1935"/>
<path d="M3.58105 2.98984L4.621 11.2044C4.621 11.2044 5.15972 10.5732 6.31841 10.1645C7.66459 9.69074 9.48449 9.4145 10.4032 8.94078C11.3219 8.46705 12.5606 7.4871 13.3868 6.52341C14.213 5.55971 14.7817 4.72225 15.6504 4.10603C16.3841 3.58606 17.3328 3.63231 17.3328 3.63231C17.3328 3.63231 16.6141 3.08109 15.2979 3.21983C13.7768 3.37857 11.8281 4.56476 11.0607 4.42852C9.59324 4.16728 9.3795 3.14233 7.92583 2.8211C5.6347 2.31488 3.58105 2.98984 3.58105 2.98984Z" fill="#FE2C23"/>
<path d="M9.4861 8.5583C9.50235 8.65454 10.9848 8.00707 11.7197 7.16587C12.3185 6.4809 12.5609 5.6822 13.1122 5.11598C13.6634 4.54976 14.2284 3.98354 14.2284 3.98354C14.2284 3.98354 12.6072 4.18228 11.7047 5.25347C10.8023 6.32466 10.4961 7.01213 10.2973 7.33336C10.0986 7.65584 9.4711 8.4658 9.4861 8.5583Z" fill="#FF5F5F"/>
<path d="M5.18762 8.63454C5.38511 8.61205 5.5851 7.41086 6.12132 6.49341C6.65754 5.57595 7.49749 4.81099 7.81873 4.59601C8.13996 4.38227 8.52244 4.10603 8.01747 3.83105C7.51249 3.55606 6.61004 3.34107 5.70759 3.34107C4.83264 3.34107 4.6064 3.43232 4.56015 3.53981C4.5139 3.64731 4.77389 6.41591 4.86638 7.05838C4.95888 7.70209 5.05012 8.64954 5.18762 8.63454Z" fill="#FF5F5F"/>
</svg>
