<svg width="20" height="20" viewBox="0 0 20 20" fill="none" xmlns="http://www.w3.org/2000/svg">
<path d="M10.1146 13.0181L9.04336 13.483L8.03217 15.6267C8.03217 15.6267 8.92212 17.5978 8.96212 17.5978C9.00211 17.5978 9.50834 17.6378 9.50834 17.6378L11.3082 15.6254L11.7632 12.1881L10.1146 13.0181Z" fill="#A02422"/>
<path d="M9.06211 14.6042C9.06211 14.6042 9.65833 14.483 10.0833 14.2805C10.5083 14.078 11.0333 13.7755 11.0333 13.7755L10.8408 15.4542L8.95962 17.5953C8.95962 17.5953 8.88587 17.5041 8.57339 16.8241C8.32465 16.2816 8.2384 16.0879 8.2384 16.0879L9.06211 14.6042Z" fill="#CA2C31"/>
<path d="M2.47125 10.9657L4.51364 8.95328L7.99096 8.33707L7.64723 10.157L2.94623 11.6019L2.64249 11.4707L2.47125 10.9657Z" fill="#CA2C31"/>
<path d="M4.86735 9.46948L2.64996 11.4844L4.28113 12.2793L6.75725 11.0157V10.4194L7.26347 9.0545L4.86735 9.46948Z" fill="#A02422"/>
<path d="M5.94732 12.0819C5.94732 12.0819 5.22986 12.0219 4.44365 13.0156C3.72619 13.923 3.38996 15.4004 3.25996 15.7804C3.12997 16.1604 2.81874 16.2379 2.92248 16.4116C3.02623 16.5854 3.47495 16.5754 4.02867 16.5066C4.58239 16.4379 5.05737 16.2642 5.05737 16.2642C5.05737 16.2642 5.03362 16.3241 4.95362 16.4541C4.92488 16.5004 4.82488 16.5666 4.83238 16.6354C4.84988 16.7991 6.25231 16.8029 7.37225 15.6504C8.58218 14.4068 7.99471 13.3868 7.99471 13.3868L5.94732 12.0819Z" fill="#F7D74D"/>
<path d="M6.16352 12.6606C6.16352 12.6606 5.38981 12.7018 4.74984 13.6955C4.10987 14.6892 3.81239 15.8404 3.87364 15.9179C3.93363 15.9954 5.12607 15.5642 5.41231 15.6504C5.60854 15.7104 5.5073 15.9092 5.5598 15.9617C5.60355 16.0054 6.12102 16.0792 6.95847 15.1717C7.79718 14.2642 7.59844 12.9893 7.59844 12.9893L6.16352 12.6606Z" fill="#FBF0B4"/>
<path d="M6.5435 11.3044C6.5435 11.3044 6.15477 11.6506 6.01603 11.8494C5.87728 12.0481 5.87728 12.0656 5.88603 12.1256C5.89478 12.1856 6.03853 12.8443 6.63724 13.4218C7.3722 14.1305 8.02842 14.2255 8.12342 14.2255C8.21841 14.2255 8.84963 13.5168 8.84963 13.5168L6.5435 11.3044Z" fill="#858585"/>
<path d="M8.26221 13.4043C8.26221 13.4043 8.89217 13.818 9.94837 13.463C11.392 12.9781 12.4507 11.8931 13.7619 10.5232C15.0268 9.20076 16.088 7.5596 16.088 7.5596L15.3443 5.06848L8.26221 13.4043Z" fill="#437687"/>
<path d="M14.1256 13.9155C14.2769 13.9993 14.4669 13.9518 14.5369 13.7905C14.6006 13.6468 14.4831 13.4755 14.3769 13.4293C14.2706 13.383 14.0844 13.4443 14.0169 13.5655C13.9506 13.6855 14.0344 13.8655 14.1256 13.9155Z" fill="white"/>
<path d="M10.4983 12.0406L10.672 11.5006L11.107 11.5619C11.107 11.5619 11.4382 11.7181 11.682 11.8319C11.9257 11.9456 12.2394 12.0319 12.2394 12.0319L11.6207 12.5543C11.6207 12.5543 11.2833 12.4268 11.037 12.3193C10.7595 12.1981 10.4983 12.0406 10.4983 12.0406Z" fill="#3F545F"/>
<path d="M12.5394 4.01727C12.5394 4.01727 11.337 4.71474 9.61333 6.3459C8.05966 7.81582 6.90847 9.14575 6.62974 10.2769C6.39725 11.2244 6.52099 11.7994 7.04971 12.4206C7.60843 13.078 8.2634 13.4043 8.2634 13.4043C8.2634 13.4043 8.75587 13.4118 10.8108 11.8306C13.3744 9.85697 15.428 6.55214 15.428 6.55214L12.5394 4.01727Z" fill="#8DAFBF"/>
<path d="M6.97597 10.7069C7.13846 10.8619 7.3847 10.6994 7.54594 10.3195C7.70843 9.93948 7.70593 9.727 7.58094 9.637C7.42594 9.52451 7.16596 9.77074 7.05221 9.98948C6.92722 10.232 6.85347 10.5895 6.97597 10.7069Z" fill="#B3E1EE"/>
<path d="M10.5208 12.0493C10.5208 12.0493 9.61714 11.5881 9.04217 10.9319C7.95472 9.69322 7.72974 8.33329 7.72974 8.33329L8.27596 7.69208C8.27596 7.69208 8.4122 9.137 9.57839 10.3857C10.3383 11.1994 11.1321 11.5719 11.1321 11.5719C11.1321 11.5719 10.9733 11.7056 10.8033 11.8356C10.6946 11.9194 10.5208 12.0493 10.5208 12.0493Z" fill="#6896A5"/>
<path d="M8.2497 11.6106C8.2497 11.6106 9.02341 10.8257 9.10841 10.9107C9.1934 10.9957 9.18215 11.4719 8.81217 12.0019C8.44094 12.5318 7.62474 13.4755 6.97852 14.1118C6.34105 14.738 5.44235 15.4542 5.35735 15.4417C5.29111 15.4317 5.02237 15.2979 4.91488 15.1679C4.80988 15.0392 5.12362 14.4305 5.24986 14.2292C5.37735 14.028 8.2497 11.6106 8.2497 11.6106Z" fill="#A02524"/>
<path d="M4.65359 14.7305C4.64359 14.9105 4.91857 15.173 4.91857 15.173L9.10835 10.9119C9.10835 10.9119 8.91211 10.6907 8.33464 11.0494C7.75217 11.4119 7.2422 11.8469 6.48974 12.5756C5.44104 13.593 4.66359 14.5505 4.65359 14.7305Z" fill="#CA2C31"/>
<path d="M16.273 10.2295C16.1868 10.0957 16.0005 10.052 15.8793 10.1595C15.7618 10.2645 15.7906 10.4294 15.8568 10.5132C15.9231 10.5969 16.1005 10.6282 16.208 10.5594C16.3155 10.4907 16.3255 10.3094 16.273 10.2295Z" fill="white"/>
<path d="M15.0218 7.22961C15.0218 7.22961 13.9756 6.78338 13.2294 5.74219C12.4882 4.70849 12.5469 4.00978 12.5469 4.00978C12.5469 4.00978 13.1669 3.52356 14.5606 2.96733C15.498 2.5936 16.7742 2.40236 17.1942 2.7136C17.6142 3.02483 16.9067 4.586 16.9067 4.586L15.618 7.08087L15.0218 7.22961Z" fill="#D83F22"/>
<path d="M12.6182 4.51602C12.6182 4.51602 11.667 5.19974 10.652 6.12969C9.72083 6.98339 9.10336 7.65086 9.01837 7.80585C8.92837 7.97209 8.92712 8.20708 8.99712 8.32707C9.06711 8.44706 9.22211 8.50956 9.36335 8.40457C9.50459 8.29832 10.5108 7.18588 11.4195 6.39092C12.2507 5.66346 12.8919 5.20224 12.8919 5.20224C12.8919 5.20224 13.1519 4.74226 13.1094 4.63727C13.0669 4.53102 12.6182 4.51602 12.6182 4.51602Z" fill="#B3E1EE"/>
<path d="M13.1982 6.90588C12.502 6.26467 11.5333 6.43716 11.0558 7.00713C10.5658 7.5946 10.6021 8.49205 11.1808 9.03202C11.707 9.52199 12.6857 9.63324 13.2757 8.94577C13.8007 8.33581 13.7682 7.4296 13.1982 6.90588Z" fill="#E1E1E1"/>
<path d="M11.4158 7.23338C11.0021 7.6396 11.0246 8.44456 11.517 8.81204C11.947 9.13328 12.557 9.11703 12.9395 8.7258C13.3219 8.33457 13.3219 7.62336 12.9632 7.25587C12.5507 6.83465 11.8895 6.7684 11.4158 7.23338Z" fill="#3F545F"/>
<path d="M4.38238 6.6184C4.24363 6.75714 4.23738 6.97963 4.39238 7.10712C4.52987 7.22087 4.75361 7.14712 4.83735 7.04463C4.9211 6.94213 4.9111 6.71964 4.79985 6.60965C4.68861 6.4984 4.46737 6.53465 4.38238 6.6184Z" fill="white"/>
<path opacity="0.5" d="M7.12725 6.45589C7.02226 6.57213 7.05601 6.74463 7.1535 6.80837C7.251 6.87212 7.39724 6.86587 7.46848 6.77837C7.53223 6.69963 7.53973 6.54214 7.44224 6.44464C7.35724 6.3609 7.19475 6.3809 7.12725 6.45589Z" fill="white"/>
<path d="M16.088 7.5596C16.088 7.5596 16.6305 6.90588 17.1442 5.43221C17.8617 3.37732 17.2367 2.75485 17.2367 2.75485C17.2367 2.75485 17.0255 3.7323 16.2918 5.09098C15.7031 6.17967 14.9906 7.21587 14.9906 7.21587C14.9906 7.21587 15.3831 7.39211 15.5956 7.45336C15.8631 7.53085 16.088 7.5596 16.088 7.5596Z" fill="#A02422"/>
<path d="M12.6182 4.516C12.6182 4.516 13.3206 3.97728 14.0856 3.59855C14.7968 3.24607 15.5043 2.95233 15.6318 3.20732C15.753 3.44981 14.9605 3.77979 14.2631 4.22476C13.5656 4.66974 12.8944 5.20096 12.8944 5.20096C12.8944 5.20096 12.7919 5.01347 12.7257 4.83973C12.6519 4.65099 12.6182 4.516 12.6182 4.516Z" fill="#ED6A65"/>
<path d="M8.94341 3.48607C8.94341 3.48607 9.0959 3.05109 9.1859 3.04609C9.27715 3.04109 9.40839 3.48107 9.40839 3.48107C9.40839 3.48107 9.85961 3.48607 9.88961 3.55232C9.92836 3.63731 9.60088 3.9223 9.60088 3.9223C9.60088 3.9223 9.70712 4.34728 9.65712 4.39852C9.60088 4.45477 9.21215 4.23103 9.21215 4.23103C9.21215 4.23103 8.81217 4.50977 8.72592 4.43352C8.65093 4.36727 8.80717 3.9173 8.80717 3.9173C8.80717 3.9173 8.43219 3.64356 8.45219 3.56732C8.48094 3.45982 8.94341 3.48607 8.94341 3.48607Z" fill="white"/>
</svg>
