<svg width="16" height="11" viewBox="0 0 16 11" fill="none" xmlns="http://www.w3.org/2000/svg">
<path d="M8.23954 5.57992C8.1082 5.44492 7.8918 5.44492 7.76047 5.57992C7.10027 6.25858 5.16967 8.23525 3.16267 10.2166C2.70907 10.6644 2.0642 10.8376 1.5562 10.4584C1.34827 10.3032 1.11267 10.0968 0.859802 9.82272C0.515602 9.44965 0.285402 9.09452 0.132335 8.79852C-0.118265 8.31372 0.00953541 7.74625 0.327269 7.30612C2.81394 3.86078 5.49867 1.51118 6.9402 0.37485C7.57427 -0.12495 8.42574 -0.12495 9.0598 0.37485C10.5013 1.51118 13.1861 3.86078 15.6727 7.30612C15.9905 7.74625 16.1183 8.31372 15.8677 8.79852C15.7146 9.09452 15.4844 9.44965 15.1402 9.82272C14.8873 10.0968 14.6517 10.3032 14.4438 10.4584C13.9358 10.8376 13.2909 10.6644 12.8374 10.2166C10.8303 8.23525 8.89974 6.25858 8.23954 5.57992Z" fill="#2878F5"/>
</svg>
