<svg width="15" height="16" viewBox="0 0 15 16" fill="none" xmlns="http://www.w3.org/2000/svg">
<path d="M1.13501 13.4255V0.822632H12.9952V13.2579H3.24652C3.13651 13.2579 3.04275 13.3355 3.02275 13.443C2.93773 13.9043 2.65895 15.0644 1.98387 15.0644C1.62007 15.0644 1.13501 14.6069 1.13501 13.4255Z" fill="white"/>
<path fill-rule="evenodd" clip-rule="evenodd" d="M2.92627 3.55306C2.92627 3.41966 3.03443 3.31152 3.16785 3.31152H10.8138C10.9472 3.31152 11.0554 3.41966 11.0554 3.55306C11.0554 3.68646 10.9472 3.7946 10.8138 3.7946H3.16785C3.03443 3.7946 2.92627 3.68646 2.92627 3.55306Z" fill="#B0BEC5"/>
<path fill-rule="evenodd" clip-rule="evenodd" d="M2.92627 5.38204C2.92627 5.24864 3.03443 5.1405 3.16785 5.1405H10.8138C10.9472 5.1405 11.0554 5.24864 11.0554 5.38204C11.0554 5.51544 10.9472 5.62358 10.8138 5.62358H3.16785C3.03443 5.62358 2.92627 5.51544 2.92627 5.38204Z" fill="#B0BEC5"/>
<path fill-rule="evenodd" clip-rule="evenodd" d="M2.92627 7.21102C2.92627 7.07762 3.03443 6.96948 3.16785 6.96948H10.8138C10.9472 6.96948 11.0554 7.07762 11.0554 7.21102C11.0554 7.34442 10.9472 7.45256 10.8138 7.45256H3.16785C3.03443 7.45256 2.92627 7.34442 2.92627 7.21102Z" fill="#B0BEC5"/>
<path fill-rule="evenodd" clip-rule="evenodd" d="M2.92627 9.03878C2.92627 8.90538 3.03443 8.79724 3.16785 8.79724H10.8138C10.9472 8.79724 11.0554 8.90538 11.0554 9.03878C11.0554 9.17218 10.9472 9.28032 10.8138 9.28032H3.16785C3.03443 9.28032 2.92627 9.17218 2.92627 9.03878Z" fill="#B0BEC5"/>
<path fill-rule="evenodd" clip-rule="evenodd" d="M2.92627 10.8678C2.92627 10.7344 3.03441 10.6262 3.16781 10.6262H6.43638C6.56978 10.6262 6.67792 10.7344 6.67792 10.8678C6.67792 11.0012 6.56978 11.1093 6.43638 11.1093H3.16781C3.03441 11.1093 2.92627 11.0012 2.92627 10.8678Z" fill="#B0BEC5"/>
<path d="M14.1217 13.1242H13.2241V0.853916C13.2241 0.658892 13.0653 0.500122 12.8703 0.500122H1.13261C0.937581 0.500122 0.778811 0.658892 0.778811 0.853916V13.288C0.777561 13.8918 0.670048 15.502 2.56528 15.502H12.6728C14.1092 15.502 14.3168 13.9518 14.343 13.3542C14.3493 13.228 14.248 13.1242 14.1217 13.1242ZM1.28012 13.288V1.00144H12.7203V13.123H3.21912C3.1116 13.123 3.02034 13.1992 3.00034 13.3042C2.91783 13.753 2.64529 14.8844 1.98771 14.8844C1.4714 14.8844 1.28012 14.4394 1.28012 13.288Z" fill="#6FBFF0"/>
</svg>
