<svg width="16" height="11" viewBox="0 0 16 11" fill="none" xmlns="http://www.w3.org/2000/svg">
<path d="M7.76046 5.42008C7.8918 5.55508 8.1082 5.55508 8.23953 5.42008C8.89973 4.74142 10.8303 2.76475 12.8373 0.783418C13.2909 0.335618 13.9358 0.162351 14.4438 0.541551C14.6517 0.696751 14.8873 0.903217 15.1402 1.17728C15.4844 1.55035 15.7146 1.90548 15.8677 2.20148C16.1183 2.68628 15.9905 3.25375 15.6727 3.69388C13.1861 7.13922 10.5013 9.48882 9.0598 10.6252C8.42573 11.1249 7.57426 11.1249 6.9402 10.6252C5.49866 9.48882 2.81393 7.13922 0.327263 3.69388C0.00952953 3.25375 -0.118268 2.68628 0.132332 2.20148C0.285399 1.90548 0.515597 1.55035 0.859797 1.17728C1.11266 0.903217 1.34826 0.696751 1.5562 0.541551C2.0642 0.162351 2.70906 0.335618 3.1626 0.783418C5.16966 2.76475 7.10026 4.74142 7.76046 5.42008Z" fill="#EA4141"/>
</svg>
