<svg width="24" height="24" viewBox="0 0 24 24" fill="none" xmlns="http://www.w3.org/2000/svg">
<path fill-rule="evenodd" clip-rule="evenodd" d="M12 3.07919L9.78722 5.36869C9.55169 5.61237 9.22731 5.74999 8.8884 5.74999H5.75002V8.88837C5.75002 9.22728 5.6124 9.55166 5.36872 9.78718L3.07922 12L5.36872 14.2128C5.61241 14.4483 5.75002 14.7727 5.75002 15.1116V18.25H8.8884C9.22731 18.25 9.55169 18.3876 9.78721 18.6313L12 20.9208L14.2128 18.6313C14.4483 18.3876 14.7727 18.25 15.1116 18.25H18.25V15.1116C18.25 14.7727 18.3876 14.4483 18.6313 14.2128L20.9208 12L18.6313 9.78719C18.3876 9.55167 18.25 9.22729 18.25 8.88838V5.74999H15.1116C14.7727 5.74999 14.4483 5.61237 14.2128 5.36869L12 3.07919ZM11.1012 1.85075C11.5926 1.34235 12.4075 1.34235 12.8988 1.85075L15.2177 4.24999H18.5C19.1904 4.24999 19.75 4.80963 19.75 5.49999V8.78232L22.1493 11.1012C22.6576 11.5925 22.6577 12.4074 22.1493 12.8988L19.75 15.2176V18.5C19.75 19.1903 19.1904 19.75 18.5 19.75H15.2177L12.8988 22.1492C12.4075 22.6576 11.5926 22.6576 11.1012 22.1492L8.78235 19.75H5.50002C4.80966 19.75 4.25002 19.1903 4.25002 18.5V15.2177L1.85078 12.8988C1.34238 12.4074 1.34238 11.5925 1.85078 11.1012L4.25002 8.78232V5.49999C4.25002 4.80963 4.80966 4.24999 5.50002 4.24999H8.78235L11.1012 1.85075Z" fill="black"/>
<path fill-rule="evenodd" clip-rule="evenodd" d="M7.25002 12C7.25002 9.37663 9.37666 7.24999 12 7.24999C14.6234 7.24999 16.75 9.37663 16.75 12C16.75 14.6233 14.6234 16.75 12 16.75C9.37666 16.75 7.25002 14.6233 7.25002 12ZM12 8.74999C10.2051 8.74999 8.75002 10.2051 8.75002 12C8.75002 13.7949 10.2051 15.25 12 15.25C13.7949 15.25 15.25 13.7949 15.25 12C15.25 10.2051 13.7949 8.74999 12 8.74999Z" fill="black"/>
</svg>
