<svg viewBox="0 0 120 84" fill="none" xmlns="http://www.w3.org/2000/svg">
<path fill-rule="evenodd" clip-rule="evenodd" d="M33.5244 24.0339L78.3132 61.9218C67.7009 74.1152 49.0717 75.5185 36.7036 65.056C24.3355 54.5936 22.9122 36.2273 33.5244 24.0339Z" fill="#E91717" fill-opacity="0.06"/>
<g filter="url(#filter0_d_460_1523)">
<path fill-rule="evenodd" clip-rule="evenodd" d="M79.0545 59.9662L34.2658 22.0783C34.2658 22.0783 34.2658 22.0783 34.2658 22.0782C44.8781 9.88479 63.5073 8.48154 75.8754 18.944C88.2435 29.4064 89.6668 47.7727 79.0545 59.9661C79.0545 59.9661 79.0545 59.9662 79.0545 59.9662Z" fill="#0046FF" fill-opacity="0.16" shape-rendering="crispEdges"/>
</g>
<path d="M66.7168 20.5188H67.6828V21.8068C67.6828 24.2428 66.3108 26.2588 64.1968 27.0848L63.5808 26.1468C65.4848 25.4468 66.7168 23.7388 66.7168 21.8068V20.5188ZM66.9268 20.5188H67.8788V21.8908C67.8788 23.5988 69.1388 25.1808 70.9588 25.8108L70.3428 26.7208C68.3128 25.9648 66.9268 24.0888 66.9268 21.8908V20.5188ZM72.3028 19.8608H73.4648V27.5328H72.3028V19.8608ZM73.1428 23.1228H75.3408V24.1028H73.1428V23.1228ZM69.4328 27.8828C72.0228 27.8828 73.5908 28.7368 73.5908 30.1928C73.5908 31.6488 72.0228 32.4888 69.4328 32.4888C66.8428 32.4888 65.2748 31.6488 65.2748 30.1928C65.2748 28.7368 66.8428 27.8828 69.4328 27.8828ZM69.4328 28.8068C67.5568 28.8068 66.4088 29.3108 66.4088 30.1928C66.4088 31.0748 67.5568 31.5788 69.4328 31.5788C71.3088 31.5788 72.4568 31.0748 72.4568 30.1928C72.4568 29.3108 71.3088 28.8068 69.4328 28.8068ZM80.6597 20.4488C82.5497 20.4488 83.8937 21.4988 83.8937 23.0528C83.8937 24.5928 82.5497 25.6708 80.6597 25.6708C78.7837 25.6708 77.4397 24.5928 77.4397 23.0528C77.4397 21.4988 78.7837 20.4488 80.6597 20.4488ZM80.6597 21.4148C79.4277 21.4148 78.5457 22.0868 78.5457 23.0528C78.5457 24.0328 79.4277 24.6908 80.6597 24.6908C81.8917 24.6908 82.7737 24.0328 82.7737 23.0528C82.7737 22.0868 81.8917 21.4148 80.6597 21.4148ZM80.1417 27.0708H81.3037V32.1248H80.1417V27.0708ZM85.7417 19.8608H86.8897V32.5308H85.7417V19.8608ZM76.6557 27.7008L76.5017 26.7208C78.8537 26.7208 82.0597 26.6928 84.8457 26.2728L84.9297 27.1408C82.0737 27.6588 78.9657 27.7008 76.6557 27.7008ZM64.1828 49.4248V48.3608H66.4648V40.7168H64.6308V39.8908C65.5548 39.7368 66.2128 39.4988 66.7588 39.1628H67.7388V48.3608H69.8108V49.4248H64.1828ZM74.6084 49.6208C72.6484 49.6208 71.4024 47.8428 71.4024 44.2588C71.4024 40.7028 72.6484 38.9808 74.6084 38.9808C76.5404 38.9808 77.7864 40.7028 77.7864 44.2588C77.7864 47.8428 76.5404 49.6208 74.6084 49.6208ZM74.6084 48.5848C75.7704 48.5848 76.5544 47.2828 76.5544 44.2588C76.5544 41.2768 75.7704 40.0028 74.6084 40.0028C73.4324 40.0028 72.6344 41.2768 72.6344 44.2588C72.6344 47.2828 73.4324 48.5848 74.6084 48.5848ZM81.3521 45.4488C79.9381 45.4488 79.0141 44.2728 79.0141 42.2008C79.0141 40.1428 79.9381 38.9808 81.3521 38.9808C82.7661 38.9808 83.6901 40.1428 83.6901 42.2008C83.6901 44.2728 82.7661 45.4488 81.3521 45.4488ZM81.3521 44.6648C82.1641 44.6648 82.7101 43.8248 82.7101 42.2008C82.7101 40.5628 82.1641 39.7648 81.3521 39.7648C80.5401 39.7648 79.9801 40.5628 79.9801 42.2008C79.9801 43.8248 80.5401 44.6648 81.3521 44.6648ZM81.6461 49.6208L87.3021 38.9808H88.1701L82.5141 49.6208H81.6461ZM88.5061 49.6208C87.0921 49.6208 86.1681 48.4448 86.1681 46.3588C86.1681 44.3148 87.0921 43.1388 88.5061 43.1388C89.8921 43.1388 90.8301 44.3148 90.8301 46.3588C90.8301 48.4448 89.8921 49.6208 88.5061 49.6208ZM88.5061 48.8368C89.3041 48.8368 89.8641 47.9968 89.8641 46.3588C89.8641 44.7208 89.3041 43.9368 88.5061 43.9368C87.6941 43.9368 87.1341 44.7208 87.1341 46.3588C87.1341 47.9968 87.6941 48.8368 88.5061 48.8368Z" fill="black"/>
<path d="M7.944 44.7256H8.94V55.5736H7.944V44.7256ZM8.7 49.1776H10.716V50.0176H8.7V49.1776ZM0.54 46.4536H6.936V47.2696H0.54V46.4536ZM3.78 48.1696C5.316 48.1696 6.42 49.2016 6.42 50.6656C6.42 52.1296 5.316 53.1616 3.78 53.1616C2.256 53.1616 1.14 52.1296 1.14 50.6656C1.14 49.2016 2.256 48.1696 3.78 48.1696ZM3.78 48.9976C2.796 48.9976 2.088 49.6816 2.088 50.6656C2.088 51.6376 2.796 52.3336 3.78 52.3336C4.764 52.3336 5.472 51.6376 5.472 50.6656C5.472 49.6816 4.764 48.9976 3.78 48.9976ZM3.264 44.8576H4.26V46.8256H3.264V44.8576ZM15.1791 45.2296C16.7991 45.2296 17.9511 46.1296 17.9511 47.4616C17.9511 48.7816 16.7991 49.7056 15.1791 49.7056C13.5711 49.7056 12.4191 48.7816 12.4191 47.4616C12.4191 46.1296 13.5711 45.2296 15.1791 45.2296ZM15.1791 46.0576C14.1231 46.0576 13.3671 46.6336 13.3671 47.4616C13.3671 48.3016 14.1231 48.8656 15.1791 48.8656C16.2351 48.8656 16.9911 48.3016 16.9911 47.4616C16.9911 46.6336 16.2351 46.0576 15.1791 46.0576ZM14.7351 50.9056H15.7311V55.2376H14.7351V50.9056ZM19.5351 44.7256H20.5191V55.5856H19.5351V44.7256ZM11.7471 51.4456L11.6151 50.6056C13.6311 50.6056 16.3791 50.5816 18.7671 50.2216L18.8391 50.9656C16.3911 51.4096 13.7271 51.4456 11.7471 51.4456ZM27.5697 54.8056C26.6097 54.8056 25.9377 54.4216 25.4457 53.9056L26.0577 53.2096C26.4297 53.6416 26.9697 53.8936 27.5337 53.8936C28.7097 53.8936 29.7297 52.8736 29.7297 49.8616C29.7297 47.7016 29.0457 46.5376 27.8097 46.5376C26.9697 46.5376 26.3217 47.3296 26.3217 48.5416C26.3217 49.7176 26.8497 50.4976 27.8937 50.4976C28.4817 50.4976 29.1657 50.1496 29.7417 49.2736L29.8017 50.1496C29.2497 50.8456 28.4697 51.3016 27.7137 51.3016C26.2377 51.3016 25.2897 50.3656 25.2897 48.5416C25.2897 46.8376 26.4417 45.6856 27.8097 45.6856C29.5017 45.6856 30.7617 47.0656 30.7617 49.8616C30.7617 53.4376 29.2257 54.8056 27.5697 54.8056ZM34.754 54.8056C33.074 54.8056 32.006 53.2816 32.006 50.2096C32.006 47.1616 33.074 45.6856 34.754 45.6856C36.41 45.6856 37.478 47.1616 37.478 50.2096C37.478 53.2816 36.41 54.8056 34.754 54.8056ZM34.754 53.9176C35.75 53.9176 36.422 52.8016 36.422 50.2096C36.422 47.6536 35.75 46.5616 34.754 46.5616C33.746 46.5616 33.062 47.6536 33.062 50.2096C33.062 52.8016 33.746 53.9176 34.754 53.9176ZM40.5342 51.2296C39.3222 51.2296 38.5302 50.2216 38.5302 48.4456C38.5302 46.6816 39.3222 45.6856 40.5342 45.6856C41.7462 45.6856 42.5382 46.6816 42.5382 48.4456C42.5382 50.2216 41.7462 51.2296 40.5342 51.2296ZM40.5342 50.5576C41.2302 50.5576 41.6982 49.8376 41.6982 48.4456C41.6982 47.0416 41.2302 46.3576 40.5342 46.3576C39.8382 46.3576 39.3582 47.0416 39.3582 48.4456C39.3582 49.8376 39.8382 50.5576 40.5342 50.5576ZM40.7862 54.8056L45.6342 45.6856H46.3782L41.5302 54.8056H40.7862ZM46.6662 54.8056C45.4542 54.8056 44.6622 53.7976 44.6622 52.0096C44.6622 50.2576 45.4542 49.2496 46.6662 49.2496C47.8542 49.2496 48.6582 50.2576 48.6582 52.0096C48.6582 53.7976 47.8542 54.8056 46.6662 54.8056ZM46.6662 54.1336C47.3502 54.1336 47.8302 53.4136 47.8302 52.0096C47.8302 50.6056 47.3502 49.9336 46.6662 49.9336C45.9702 49.9336 45.4902 50.6056 45.4902 52.0096C45.4902 53.4136 45.9702 54.1336 46.6662 54.1336Z" fill="black"/>
<defs>
<filter id="filter0_d_460_1523" x="30.2657" y="11.9301" width="59.9031" height="56.0361" filterUnits="userSpaceOnUse" color-interpolation-filters="sRGB">
<feFlood flood-opacity="0" result="BackgroundImageFix"/>
<feColorMatrix in="SourceAlpha" type="matrix" values="0 0 0 0 0 0 0 0 0 0 0 0 0 0 0 0 0 0 127 0" result="hardAlpha"/>
<feOffset dy="4"/>
<feGaussianBlur stdDeviation="2"/>
<feComposite in2="hardAlpha" operator="out"/>
<feColorMatrix type="matrix" values="0 0 0 0 0 0 0 0 0 0 0 0 0 0 0 0 0 0 0.25 0"/>
<feBlend mode="normal" in2="BackgroundImageFix" result="effect1_dropShadow_460_1523"/>
<feBlend mode="normal" in="SourceGraphic" in2="effect1_dropShadow_460_1523" result="shape"/>
</filter>
</defs>
</svg>
