<svg  viewBox="0 0 20 20" fill="none" xmlns="http://www.w3.org/2000/svg">
<path d="M9.66044 17.342C6.63185 17.342 5.15942 15.7343 5.15942 12.4276V9.64228C5.15942 9.54726 5.16567 9.48601 5.17317 9.4485C5.26067 9.50351 5.41691 9.64353 5.5369 9.75104C5.95063 10.1211 6.51685 10.6286 7.17057 10.6286H7.18432C7.20682 10.6274 9.49545 10.4561 11.3603 10.4561C13.2602 10.4561 13.5915 10.6324 13.6477 10.6862C14.199 11.2125 14.5102 11.565 14.5102 12.6727C14.5102 14.9292 13.2365 17.342 9.66044 17.342Z" fill="url(#paint0_radial_435_5211)"/>
<path d="M5.3469 9.83473C5.3694 9.85473 5.39065 9.87348 5.41065 9.89224C5.84688 10.2835 6.4431 10.8186 7.16931 10.8186C7.17931 10.8186 7.18806 10.8186 7.19806 10.8174C7.22056 10.8161 9.50169 10.6448 11.3603 10.6448C13.1227 10.6448 13.4765 10.8011 13.5265 10.8299C14.0502 11.3312 14.3227 11.645 14.3227 12.6726C14.3227 13.8815 13.9477 14.9754 13.2665 15.7517C12.449 16.6831 11.2366 17.1556 9.66043 17.1556C8.06551 17.1556 6.94807 16.7131 6.24311 15.803C5.64814 15.0341 5.3469 13.9002 5.3469 12.4301V9.83473ZM5.12442 9.2384C5.02567 9.2384 4.97192 9.35092 4.97192 9.64345V12.4288C4.97192 15.2342 6.00812 17.5307 9.66043 17.5307C13.3127 17.5307 14.6977 15.0666 14.6977 12.6726C14.6977 11.5224 14.3652 11.1136 13.7777 10.5511C13.5527 10.336 12.534 10.2698 11.3603 10.2698C9.46544 10.2698 7.16931 10.4436 7.16931 10.4436C6.24311 10.4423 5.4469 9.2384 5.12442 9.2384Z" fill="#EDA600"/>
<path d="M12.8743 11.8514C12.7493 11.8514 12.7518 11.8476 12.6981 11.8389C12.2918 11.7764 11.9518 11.4788 11.8431 11.0813C11.8231 11.0075 11.7569 10.9538 11.6819 10.945C11.6744 10.9438 11.6644 10.9438 11.6556 10.9438C11.5894 10.9438 11.5256 10.9788 11.4919 11.0375C11.3456 11.2925 11.1081 11.4688 10.8244 11.5351C10.7469 11.5526 10.6669 11.5626 10.5882 11.5626C10.1019 11.5626 9.68447 11.2313 9.57447 10.7562L7.99331 3.93537C7.86331 3.3753 8.2133 2.81523 8.77202 2.68522C8.84951 2.66772 8.92951 2.65771 9.00825 2.65771C9.49448 2.65771 9.91196 2.98901 10.022 3.46407L11.5669 9.59108C11.5881 9.67484 11.6644 9.74985 11.7494 9.74985H11.7581C11.8469 9.74985 11.9206 9.66359 11.9356 9.57483L12.8418 3.96038C12.9193 3.45531 13.3618 3.07152 13.8705 3.07152C13.923 3.07152 13.978 3.07402 14.0305 3.08152C14.598 3.16903 14.9892 3.70035 14.9017 4.26792L13.888 10.9675C13.808 11.4713 13.3743 11.8514 12.8743 11.8514Z" fill="url(#paint1_radial_435_5211)"/>
<path d="M9.00999 2.84524C9.40872 2.84524 9.74995 3.11777 9.8412 3.50657C9.8412 3.50907 9.84245 3.51157 9.84245 3.51407L11.3861 9.61984C11.4286 9.78736 11.5786 9.90237 11.7498 9.90237H11.7661C11.9436 9.89487 12.0911 9.7636 12.1198 9.58733L13.0273 3.97788C13.091 3.56533 13.4535 3.25279 13.8697 3.25279C13.9135 3.25279 13.9572 3.25654 14.001 3.26279C14.466 3.33405 14.7872 3.7716 14.7147 4.23666L13.6847 10.9363C13.621 11.3488 13.2585 11.6613 12.8423 11.6613C12.7985 11.6613 12.7548 11.6576 12.711 11.6513C12.3773 11.6001 12.1048 11.3563 12.0173 11.03C11.9773 10.8837 11.8536 10.775 11.7036 10.7562C11.6873 10.7537 11.6711 10.7537 11.6561 10.7537C11.5236 10.7537 11.3986 10.825 11.3311 10.9425C11.2111 11.1513 11.0174 11.2963 10.7849 11.3501C10.7211 11.3651 10.6562 11.3726 10.5912 11.3726C10.1924 11.3726 9.8512 11.1 9.75995 10.7112L8.17628 3.89287C8.07004 3.43406 8.35627 2.974 8.815 2.86774C8.88 2.85274 8.94499 2.84524 9.00999 2.84524ZM9.00999 2.47019C8.91749 2.47019 8.825 2.48019 8.73125 2.5027C8.07004 2.65647 7.65881 3.31655 7.8113 3.97788L9.39247 10.7975C9.52371 11.3651 10.0299 11.7489 10.5887 11.7489C10.6812 11.7489 10.7736 11.7389 10.8674 11.7163C11.2136 11.6363 11.4911 11.4163 11.6549 11.13C11.7786 11.5851 12.1586 11.9476 12.6535 12.0239C12.7173 12.0339 12.7798 12.0389 12.8423 12.0389C13.4385 12.0389 13.9622 11.6038 14.056 10.9963L15.0859 4.29667C15.1897 3.62534 14.7284 2.99776 14.0585 2.89525C13.9947 2.88524 13.9322 2.88024 13.8697 2.88024C13.2735 2.88024 12.7498 3.3153 12.656 3.92287L11.7498 9.52857L10.2062 3.42281C10.0737 2.85399 9.56871 2.47019 9.00999 2.47019Z" fill="#EDA600"/>
<path d="M8.46346 11.8948C7.90599 11.8948 7.44976 11.4761 7.39977 10.9211L7.21602 8.8662C7.19103 8.58122 7.27727 8.30373 7.46101 8.08499C7.64475 7.86625 7.90224 7.73126 8.18597 7.70501C8.21847 7.70251 8.25097 7.70001 8.28347 7.70001C8.83969 7.70001 9.29717 8.11874 9.34716 8.67371L9.5309 10.7286C9.5559 11.0136 9.46966 11.2911 9.28592 11.5098C9.10218 11.7285 8.84469 11.8635 8.56095 11.8898C8.52721 11.8935 8.49471 11.8948 8.46346 11.8948Z" fill="url(#paint2_radial_435_5211)"/>
<path d="M8.28171 7.88747C8.73294 7.88747 9.11792 8.23995 9.15917 8.69118L9.34291 10.7461C9.36416 10.9811 9.29291 11.2098 9.14167 11.3898C8.99042 11.571 8.77794 11.6823 8.54295 11.7023C8.5167 11.7048 8.4892 11.706 8.46295 11.706C8.00423 11.706 7.62675 11.361 7.5855 10.9023L7.40176 8.84742C7.38051 8.61243 7.45176 8.38369 7.603 8.2037C7.75424 8.02246 7.96673 7.91122 8.20172 7.89122C8.22796 7.88872 8.25421 7.88747 8.28171 7.88747ZM8.28046 7.51249C8.24296 7.51249 8.20547 7.51374 8.16672 7.51749C7.4755 7.57999 6.96428 8.18995 7.02678 8.88117L7.21177 10.9373C7.27052 11.591 7.81924 12.0822 8.46295 12.0822C8.50045 12.0822 8.53795 12.081 8.5767 12.0772C9.26791 12.0148 9.77913 11.4048 9.71664 10.7136L9.5329 8.65868C9.4729 8.00371 8.92418 7.51249 8.28046 7.51249Z" fill="#EDA600"/>
<path d="M6.43582 12.2401C5.9371 12.2401 5.50087 11.8851 5.39837 11.3976L5.10964 10.0252C5.05089 9.74773 5.10464 9.464 5.25963 9.22651C5.41462 8.98902 5.65211 8.82653 5.9296 8.76778C6.00209 8.75278 6.07584 8.74529 6.14959 8.74529C6.64831 8.74529 7.08454 9.10027 7.18703 9.58774L7.47577 10.9602C7.53451 11.2377 7.48077 11.5214 7.32577 11.7589C7.17078 11.9964 6.93329 12.1589 6.65581 12.2176C6.58331 12.2326 6.50832 12.2401 6.43582 12.2401Z" fill="url(#paint3_radial_435_5211)"/>
<path d="M6.14977 8.93274C6.55974 8.93274 6.91848 9.22523 7.00347 9.62646L7.29221 10.9989C7.39095 11.4701 7.08847 11.9351 6.61724 12.0338C6.55724 12.0463 6.496 12.0526 6.436 12.0526C6.02602 12.0526 5.66729 11.7601 5.5823 11.3589L5.29356 9.98644C5.19482 9.51521 5.4973 9.05024 5.96853 8.95149C6.02852 8.93899 6.08852 8.93274 6.14977 8.93274ZM6.14977 8.55776C6.06477 8.55776 5.97852 8.56651 5.89103 8.58526C5.21606 8.72775 4.78359 9.38897 4.92608 10.0639L5.21481 11.4364C5.33856 12.0251 5.85728 12.4276 6.436 12.4276C6.521 12.4276 6.60724 12.4188 6.69474 12.4001C7.3697 12.2576 7.80218 11.5964 7.65969 10.9214L7.37095 9.54896C7.24596 8.96149 6.72724 8.55776 6.14977 8.55776Z" fill="#EDA600"/>
<path d="M12.9852 13.239C12.5215 13.1028 12.0115 13.054 11.5641 13.2715C11.1016 13.4965 10.8678 13.949 10.6816 14.404C10.5904 14.6277 10.9528 14.724 11.0428 14.504C11.1966 14.129 11.3928 13.7478 11.7878 13.5853C12.144 13.4378 12.5265 13.4953 12.8852 13.6015C13.1177 13.669 13.2165 13.3078 12.9852 13.239Z" fill="#EDA600"/>
<path d="M13.6709 14.9427C13.2997 14.9364 12.8035 14.4402 12.4635 13.7352C12.1735 13.1328 11.6273 12.8978 10.5124 12.8978C10.1999 12.8978 9.84739 12.9165 9.43116 12.954C9.40116 12.9565 9.36992 12.9578 9.33992 12.9578C8.86244 12.9578 8.35497 12.6278 8.18623 12.2066C8.08123 11.9453 8.07248 11.5379 8.25872 11.2629C8.38622 11.0754 8.58621 10.9791 8.85244 10.9791C9.26992 10.9791 11.6123 10.7204 11.931 10.6842C12.7872 10.8879 14.9196 11.5891 15.0084 12.5091C15.1034 13.5078 14.9771 14.2065 14.6321 14.5865C14.4159 14.8252 14.1134 14.9402 13.7084 14.9402L13.6709 14.9427Z" fill="url(#paint4_radial_435_5211)"/>
<path d="M11.9187 10.8749C12.1125 10.9236 12.7425 11.0911 13.3762 11.3611C14.2599 11.7386 14.7873 12.1636 14.8223 12.5273C14.9123 13.471 14.8023 14.1209 14.4936 14.4609C14.3149 14.6584 14.0574 14.7534 13.7087 14.7534H13.6749C13.4212 14.7484 12.9624 14.3359 12.6337 13.6522C12.3112 12.9823 11.6975 12.7098 10.5138 12.7098C10.1963 12.7098 9.83635 12.7285 9.41513 12.7673C9.39138 12.7698 9.36638 12.771 9.34013 12.771C8.9339 12.771 8.50267 12.4923 8.36018 12.1373C8.27644 11.9273 8.26644 11.5873 8.41393 11.3686C8.50517 11.2336 8.64892 11.1674 8.85266 11.1674C9.27013 11.1674 11.4438 10.9286 11.9187 10.8749ZM11.9425 10.4949C11.9425 10.4949 9.28638 10.7924 8.85266 10.7924C7.9452 10.7924 7.79521 11.7373 8.0127 12.2773C8.21644 12.7835 8.79516 13.146 9.34013 13.146C9.37638 13.146 9.41263 13.1447 9.44887 13.141C9.8626 13.1035 10.2138 13.0848 10.5126 13.0848C11.7063 13.0848 12.08 13.3697 12.2937 13.816C12.6637 14.5859 13.2137 15.1221 13.6662 15.1296H13.7062C15.2123 15.1296 15.3011 13.6172 15.1936 12.4923C15.0736 11.2211 11.9425 10.4949 11.9425 10.4949Z" fill="#EDA600"/>
<defs>
<radialGradient id="paint0_radial_435_5211" cx="0" cy="0" r="1" gradientUnits="userSpaceOnUse" gradientTransform="translate(9.52571 12.189) rotate(14.0056) scale(4.30439 6.00099)">
<stop offset="0.2489" stop-color="#FFB300"/>
<stop offset="0.6833" stop-color="#FFCA28"/>
<stop offset="1" stop-color="#FFB300"/>
</radialGradient>
<radialGradient id="paint1_radial_435_5211" cx="0" cy="0" r="1" gradientUnits="userSpaceOnUse" gradientTransform="translate(11.4887 4.50532) rotate(90) scale(8.93662 9.39876)">
<stop stop-color="#FFCA28"/>
<stop offset="1" stop-color="#FFB300"/>
</radialGradient>
<radialGradient id="paint2_radial_435_5211" cx="0" cy="0" r="1" gradientUnits="userSpaceOnUse" gradientTransform="translate(8.22121 8.46822) rotate(84.0018) scale(2.67673 1.78411)">
<stop offset="0.5993" stop-color="#FFCA28"/>
<stop offset="1" stop-color="#FFB300"/>
</radialGradient>
<radialGradient id="paint3_radial_435_5211" cx="0" cy="0" r="1" gradientUnits="userSpaceOnUse" gradientTransform="translate(6.06393 9.5198) rotate(78.2285) scale(2.17375 1.53798)">
<stop offset="0.5993" stop-color="#FFCA28"/>
<stop offset="1" stop-color="#FFB300"/>
</radialGradient>
<radialGradient id="paint4_radial_435_5211" cx="0" cy="0" r="1" gradientUnits="userSpaceOnUse" gradientTransform="translate(10.2303 12.1244) scale(4.40163 4.80826)">
<stop stop-color="#FFCA28"/>
<stop offset="1" stop-color="#FFB300"/>
</radialGradient>
</defs>
</svg>
