<svg width="24" height="24" viewBox="0 0 24 24" fill="none" xmlns="http://www.w3.org/2000/svg">
<g clip-path="url(#clip0_299_1259)">
<path d="M15.6352 8.63404C14.2312 7.23006 14.1547 5.72708 17.039 2.84282C17.1526 2.72917 17.1305 2.53809 16.9899 2.46018C14.3977 1.0234 11.8677 1.35514 9.73457 3.48822C7.73239 5.49042 7.31724 7.84232 8.462 10.2671C8.50419 10.3565 8.48103 10.4635 8.4073 10.5293C7.40544 11.4231 6.38184 12.3498 5.38649 13.3452C4.39112 14.3406 3.4644 15.3641 2.57057 16.366C1.50556 17.5598 1.27687 19.4184 2.27499 20.6686C2.43127 20.8644 2.59706 21.0536 2.77582 21.2323C2.9546 21.4111 3.14376 21.5768 3.3395 21.7332C4.58972 22.7312 6.44842 22.5026 7.64216 21.4376C8.64403 20.5438 9.66761 19.6171 10.663 18.6218C11.6583 17.6263 12.5851 16.6027 13.4789 15.6009C13.5447 15.5271 13.6517 15.504 13.741 15.5461C16.1658 16.6909 18.5177 16.2757 20.52 14.2736C22.5843 12.2092 22.9615 9.77298 21.6812 7.26844C21.632 7.1721 21.5029 7.15375 21.4265 7.23026C18.5422 10.1145 17.0392 10.038 15.6352 8.63404Z" fill="#D7E4FB" stroke="#2878F5" stroke-width="1.73116" stroke-linecap="round" stroke-linejoin="round"/>
</g>
<defs>
<clipPath id="clip0_299_1259">
<rect width="24" height="24" fill="white"/>
</clipPath>
</defs>
</svg>
